<svg width="23" height="21" viewBox="0 0 23 21" fill="none" xmlns="http://www.w3.org/2000/svg">
<path d="M11.4999 20.6464C11.1683 20.6464 10.8474 20.6036 10.5799 20.5073C6.49344 19.1059 0 14.1315 0 6.78228C0 3.03812 3.02742 0 6.75018 0C8.55808 0 10.2483 0.706042 11.4999 1.96836C12.7515 0.706042 14.4418 0 16.2497 0C19.9724 0 22.9998 3.04881 22.9998 6.78228C22.9998 14.1422 16.5064 19.1059 12.4199 20.5073C12.1525 20.6036 11.8315 20.6464 11.4999 20.6464ZM6.75018 1.60464C3.91532 1.60464 1.60464 3.92602 1.60464 6.78228C1.60464 14.0887 8.63296 18.1538 11.1041 18.9989C11.2967 19.0631 11.7139 19.0631 11.9064 18.9989C14.3669 18.1538 21.4059 14.0994 21.4059 6.78228C21.4059 3.92602 19.0952 1.60464 16.2603 1.60464C14.6343 1.60464 13.126 2.36417 12.1525 3.67997C11.8529 4.08648 11.1683 4.08648 10.8688 3.67997C9.87388 2.35347 8.37622 1.60464 6.75018 1.60464Z" fill="#0F0F0F"/>
</svg>
