<svg width="1360" height="96" viewBox="0 0 1360 96" fill="none" xmlns="http://www.w3.org/2000/svg">
<rect x="313" y="19" width="348" height="3" fill="black"/>
<rect x="699" y="19" width="349" height="3" fill="#CDCDCD"/>
<rect x="274.333" y="1" width="38" height="38" rx="19" stroke="black" stroke-width="2"/>
<path d="M292.513 18.8594V20.7188C292.513 21.6094 292.424 22.3698 292.247 23C292.075 23.625 291.825 24.1328 291.497 24.5234C291.169 24.9141 290.776 25.2005 290.317 25.3828C289.864 25.5651 289.356 25.6562 288.794 25.6562C288.346 25.6562 287.929 25.599 287.544 25.4844C287.164 25.3698 286.82 25.1901 286.513 24.9453C286.205 24.7005 285.942 24.3854 285.724 24C285.51 23.6094 285.343 23.1432 285.224 22.6016C285.109 22.0599 285.052 21.4323 285.052 20.7188V18.8594C285.052 17.9635 285.14 17.2083 285.317 16.5938C285.494 15.974 285.747 15.4714 286.075 15.0859C286.403 14.6953 286.794 14.4115 287.247 14.2344C287.705 14.0573 288.216 13.9688 288.778 13.9688C289.231 13.9688 289.648 14.026 290.028 14.1406C290.414 14.25 290.757 14.4245 291.06 14.6641C291.367 14.9036 291.627 15.2161 291.841 15.6016C292.06 15.9818 292.226 16.4427 292.341 16.9844C292.455 17.5208 292.513 18.1458 292.513 18.8594ZM290.63 20.9844V18.5781C290.63 18.125 290.604 17.7266 290.552 17.3828C290.5 17.0339 290.422 16.7396 290.317 16.5C290.218 16.2552 290.093 16.0573 289.942 15.9062C289.791 15.75 289.619 15.638 289.427 15.5703C289.234 15.4974 289.018 15.4609 288.778 15.4609C288.487 15.4609 288.226 15.5182 287.997 15.6328C287.768 15.7422 287.575 15.9193 287.419 16.1641C287.263 16.4089 287.143 16.7318 287.06 17.1328C286.981 17.5286 286.942 18.0104 286.942 18.5781V20.9844C286.942 21.4427 286.968 21.8464 287.021 22.1953C287.073 22.5443 287.151 22.8438 287.255 23.0938C287.359 23.3385 287.484 23.5417 287.63 23.7031C287.781 23.8594 287.953 23.974 288.146 24.0469C288.343 24.1198 288.56 24.1562 288.794 24.1562C289.091 24.1562 289.354 24.099 289.583 23.9844C289.812 23.8698 290.005 23.6875 290.161 23.4375C290.317 23.1823 290.435 22.8516 290.513 22.4453C290.591 22.0391 290.63 21.5521 290.63 20.9844ZM299.333 14.0859V25.5H297.45V16.3203L294.661 17.2656V15.7109L299.106 14.0859H299.333Z" fill="black"/>
<path d="M255.804 78.4365C255.804 78.2314 255.772 78.0492 255.708 77.8896C255.649 77.7301 255.542 77.5843 255.387 77.4521C255.232 77.32 255.013 77.1924 254.73 77.0693C254.452 76.9417 254.097 76.8118 253.664 76.6797C253.19 76.5339 252.753 76.3721 252.352 76.1943C251.955 76.012 251.609 75.8024 251.312 75.5654C251.016 75.3239 250.786 75.0482 250.622 74.7383C250.458 74.4238 250.376 74.0615 250.376 73.6514C250.376 73.2458 250.46 72.8766 250.629 72.5439C250.802 72.2113 251.046 71.9242 251.36 71.6826C251.679 71.4365 252.055 71.2474 252.488 71.1152C252.921 70.9785 253.4 70.9102 253.924 70.9102C254.662 70.9102 255.298 71.0469 255.831 71.3203C256.369 71.5938 256.781 71.9606 257.068 72.4209C257.36 72.8812 257.506 73.3893 257.506 73.9453H255.804C255.804 73.6172 255.733 73.3278 255.592 73.0771C255.455 72.8219 255.245 72.6214 254.963 72.4756C254.685 72.3298 254.332 72.2568 253.903 72.2568C253.498 72.2568 253.16 72.3184 252.892 72.4414C252.623 72.5645 252.422 72.7308 252.29 72.9404C252.158 73.1501 252.092 73.387 252.092 73.6514C252.092 73.8382 252.135 74.0091 252.222 74.1641C252.308 74.3145 252.44 74.4557 252.618 74.5879C252.796 74.7155 253.019 74.8363 253.288 74.9502C253.557 75.0641 253.874 75.1735 254.238 75.2783C254.79 75.4424 255.271 75.6247 255.681 75.8252C256.091 76.0212 256.433 76.2445 256.706 76.4951C256.979 76.7458 257.185 77.0306 257.321 77.3496C257.458 77.6641 257.526 78.0218 257.526 78.4229C257.526 78.8421 257.442 79.2204 257.273 79.5576C257.105 79.8903 256.863 80.1751 256.549 80.4121C256.239 80.6445 255.865 80.8245 255.428 80.9521C254.995 81.0752 254.512 81.1367 253.979 81.1367C253.5 81.1367 253.028 81.0729 252.563 80.9453C252.103 80.8177 251.684 80.624 251.306 80.3643C250.927 80.0999 250.627 79.7718 250.403 79.3799C250.18 78.9834 250.068 78.5208 250.068 77.9922H251.784C251.784 78.3158 251.839 78.5915 251.948 78.8193C252.062 79.0472 252.219 79.234 252.42 79.3799C252.62 79.5212 252.853 79.626 253.117 79.6943C253.386 79.7627 253.673 79.7969 253.979 79.7969C254.38 79.7969 254.715 79.7399 254.983 79.626C255.257 79.512 255.462 79.3525 255.599 79.1475C255.735 78.9424 255.804 78.7054 255.804 78.4365ZM260.507 70.5V81H258.866V70.5H260.507ZM260.22 77.0283L259.687 77.0215C259.691 76.5111 259.762 76.0394 259.898 75.6064C260.04 75.1735 260.236 74.7975 260.486 74.4785C260.742 74.1549 261.047 73.9066 261.402 73.7334C261.758 73.5557 262.152 73.4668 262.585 73.4668C262.95 73.4668 263.278 73.5169 263.569 73.6172C263.866 73.7174 264.121 73.8792 264.335 74.1025C264.549 74.3213 264.711 74.6084 264.82 74.9639C264.934 75.3148 264.991 75.7432 264.991 76.249V81H263.337V76.2354C263.337 75.8799 263.285 75.5973 263.18 75.3877C263.079 75.1781 262.931 75.0277 262.735 74.9365C262.539 74.8408 262.3 74.793 262.018 74.793C261.721 74.793 261.459 74.8522 261.231 74.9707C261.008 75.0892 260.821 75.251 260.671 75.4561C260.521 75.6611 260.407 75.8981 260.329 76.167C260.256 76.4359 260.22 76.723 260.22 77.0283ZM266.345 77.3838V77.2266C266.345 76.6934 266.422 76.1989 266.577 75.7432C266.732 75.2829 266.955 74.8841 267.247 74.5469C267.543 74.2051 267.903 73.9408 268.327 73.7539C268.756 73.5625 269.239 73.4668 269.776 73.4668C270.319 73.4668 270.802 73.5625 271.226 73.7539C271.654 73.9408 272.016 74.2051 272.312 74.5469C272.609 74.8841 272.834 75.2829 272.989 75.7432C273.144 76.1989 273.222 76.6934 273.222 77.2266V77.3838C273.222 77.917 273.144 78.4115 272.989 78.8672C272.834 79.3229 272.609 79.7217 272.312 80.0635C272.016 80.4007 271.656 80.665 271.232 80.8564C270.809 81.0433 270.328 81.1367 269.79 81.1367C269.248 81.1367 268.762 81.0433 268.334 80.8564C267.91 80.665 267.55 80.4007 267.254 80.0635C266.958 79.7217 266.732 79.3229 266.577 78.8672C266.422 78.4115 266.345 77.917 266.345 77.3838ZM267.992 77.2266V77.3838C267.992 77.7165 268.026 78.0309 268.095 78.3271C268.163 78.6234 268.27 78.8831 268.416 79.1064C268.562 79.3298 268.749 79.5052 268.977 79.6328C269.204 79.7604 269.476 79.8242 269.79 79.8242C270.095 79.8242 270.36 79.7604 270.583 79.6328C270.811 79.5052 270.998 79.3298 271.144 79.1064C271.289 78.8831 271.396 78.6234 271.465 78.3271C271.538 78.0309 271.574 77.7165 271.574 77.3838V77.2266C271.574 76.8984 271.538 76.5885 271.465 76.2969C271.396 76.0007 271.287 75.7386 271.137 75.5107C270.991 75.2829 270.804 75.1051 270.576 74.9775C270.353 74.8454 270.086 74.7793 269.776 74.7793C269.466 74.7793 269.198 74.8454 268.97 74.9775C268.746 75.1051 268.562 75.2829 268.416 75.5107C268.27 75.7386 268.163 76.0007 268.095 76.2969C268.026 76.5885 267.992 76.8984 267.992 77.2266ZM276.257 75.0254V83.8438H274.609V73.6035H276.127L276.257 75.0254ZM281.076 77.2334V77.377C281.076 77.9147 281.012 78.4137 280.885 78.874C280.762 79.3298 280.577 79.7285 280.331 80.0703C280.09 80.4076 279.791 80.6696 279.436 80.8564C279.08 81.0433 278.67 81.1367 278.205 81.1367C277.745 81.1367 277.341 81.0524 276.995 80.8838C276.653 80.7106 276.364 80.4668 276.127 80.1523C275.89 79.8379 275.699 79.4688 275.553 79.0449C275.411 78.6165 275.311 78.1471 275.252 77.6367V77.083C275.311 76.5407 275.411 76.0485 275.553 75.6064C275.699 75.1644 275.89 74.7839 276.127 74.4648C276.364 74.1458 276.653 73.8997 276.995 73.7266C277.337 73.5534 277.736 73.4668 278.191 73.4668C278.656 73.4668 279.069 73.5579 279.429 73.7402C279.789 73.918 280.092 74.1732 280.338 74.5059C280.584 74.834 280.769 75.2305 280.892 75.6953C281.015 76.1556 281.076 76.6683 281.076 77.2334ZM279.429 77.377V77.2334C279.429 76.8916 279.397 76.5749 279.333 76.2832C279.269 75.987 279.169 75.7272 279.032 75.5039C278.896 75.2806 278.72 75.1074 278.506 74.9844C278.296 74.8568 278.043 74.793 277.747 74.793C277.455 74.793 277.205 74.8431 276.995 74.9434C276.785 75.0391 276.61 75.1735 276.469 75.3467C276.327 75.5199 276.218 75.7227 276.141 75.9551C276.063 76.1829 276.008 76.4313 275.977 76.7002V78.0264C276.031 78.3545 276.125 78.6553 276.257 78.9287C276.389 79.2021 276.576 79.4209 276.817 79.585C277.063 79.7445 277.378 79.8242 277.761 79.8242C278.057 79.8242 278.31 79.7604 278.52 79.6328C278.729 79.5052 278.9 79.3298 279.032 79.1064C279.169 78.8786 279.269 78.6165 279.333 78.3203C279.397 78.0241 279.429 77.7096 279.429 77.377ZM284.132 75.0254V83.8438H282.484V73.6035H284.002L284.132 75.0254ZM288.951 77.2334V77.377C288.951 77.9147 288.887 78.4137 288.76 78.874C288.637 79.3298 288.452 79.7285 288.206 80.0703C287.965 80.4076 287.666 80.6696 287.311 80.8564C286.955 81.0433 286.545 81.1367 286.08 81.1367C285.62 81.1367 285.216 81.0524 284.87 80.8838C284.528 80.7106 284.239 80.4668 284.002 80.1523C283.765 79.8379 283.574 79.4688 283.428 79.0449C283.286 78.6165 283.186 78.1471 283.127 77.6367V77.083C283.186 76.5407 283.286 76.0485 283.428 75.6064C283.574 75.1644 283.765 74.7839 284.002 74.4648C284.239 74.1458 284.528 73.8997 284.87 73.7266C285.212 73.5534 285.611 73.4668 286.066 73.4668C286.531 73.4668 286.944 73.5579 287.304 73.7402C287.664 73.918 287.967 74.1732 288.213 74.5059C288.459 74.834 288.644 75.2305 288.767 75.6953C288.89 76.1556 288.951 76.6683 288.951 77.2334ZM287.304 77.377V77.2334C287.304 76.8916 287.272 76.5749 287.208 76.2832C287.144 75.987 287.044 75.7272 286.907 75.5039C286.771 75.2806 286.595 75.1074 286.381 74.9844C286.171 74.8568 285.918 74.793 285.622 74.793C285.33 74.793 285.08 74.8431 284.87 74.9434C284.66 75.0391 284.485 75.1735 284.344 75.3467C284.202 75.5199 284.093 75.7227 284.016 75.9551C283.938 76.1829 283.883 76.4313 283.852 76.7002V78.0264C283.906 78.3545 284 78.6553 284.132 78.9287C284.264 79.2021 284.451 79.4209 284.692 79.585C284.938 79.7445 285.253 79.8242 285.636 79.8242C285.932 79.8242 286.185 79.7604 286.395 79.6328C286.604 79.5052 286.775 79.3298 286.907 79.1064C287.044 78.8786 287.144 78.6165 287.208 78.3203C287.272 78.0241 287.304 77.7096 287.304 77.377ZM292.116 73.6035V81H290.462V73.6035H292.116ZM290.353 71.6621C290.353 71.4115 290.435 71.2041 290.599 71.04C290.767 70.8714 291 70.7871 291.296 70.7871C291.588 70.7871 291.818 70.8714 291.986 71.04C292.155 71.2041 292.239 71.4115 292.239 71.6621C292.239 71.9082 292.155 72.1133 291.986 72.2773C291.818 72.4414 291.588 72.5234 291.296 72.5234C291 72.5234 290.767 72.4414 290.599 72.2773C290.435 72.1133 290.353 71.9082 290.353 71.6621ZM295.555 75.1826V81H293.907V73.6035H295.459L295.555 75.1826ZM295.261 77.0283L294.728 77.0215C294.732 76.4974 294.805 76.0166 294.946 75.5791C295.092 75.1416 295.293 74.7656 295.548 74.4512C295.808 74.1367 296.118 73.8952 296.478 73.7266C296.838 73.5534 297.239 73.4668 297.681 73.4668C298.036 73.4668 298.357 73.5169 298.645 73.6172C298.936 73.7129 299.185 73.8701 299.39 74.0889C299.599 74.3076 299.759 74.5924 299.868 74.9434C299.978 75.2897 300.032 75.7158 300.032 76.2217V81H298.378V76.2148C298.378 75.8594 298.326 75.5791 298.221 75.374C298.12 75.1644 297.972 75.0163 297.776 74.9297C297.585 74.8385 297.346 74.793 297.059 74.793C296.776 74.793 296.523 74.8522 296.3 74.9707C296.076 75.0892 295.887 75.251 295.732 75.4561C295.582 75.6611 295.466 75.8981 295.384 76.167C295.302 76.4359 295.261 76.723 295.261 77.0283ZM306.451 73.6035H307.948V80.7949C307.948 81.4603 307.807 82.0254 307.524 82.4902C307.242 82.9551 306.848 83.3083 306.342 83.5498C305.836 83.7959 305.25 83.9189 304.585 83.9189C304.302 83.9189 303.988 83.8779 303.642 83.7959C303.3 83.7139 302.967 83.5817 302.644 83.3994C302.325 83.2217 302.058 82.987 301.844 82.6953L302.616 81.7246C302.881 82.0391 303.172 82.2692 303.491 82.415C303.81 82.5609 304.145 82.6338 304.496 82.6338C304.874 82.6338 305.196 82.5632 305.46 82.4219C305.729 82.2852 305.936 82.0824 306.082 81.8135C306.228 81.5446 306.301 81.2165 306.301 80.8291V75.2783L306.451 73.6035ZM301.427 77.3838V77.2402C301.427 76.6797 301.495 76.1693 301.632 75.709C301.769 75.2441 301.965 74.8454 302.22 74.5127C302.475 74.1755 302.785 73.918 303.149 73.7402C303.514 73.5579 303.926 73.4668 304.387 73.4668C304.865 73.4668 305.273 73.5534 305.61 73.7266C305.952 73.8997 306.237 74.1481 306.465 74.4717C306.693 74.7907 306.87 75.1735 306.998 75.6201C307.13 76.0622 307.228 76.5544 307.292 77.0967V77.5547C307.233 78.0833 307.132 78.5664 306.991 79.0039C306.85 79.4414 306.663 79.8197 306.431 80.1387C306.198 80.4577 305.911 80.7038 305.569 80.877C305.232 81.0501 304.833 81.1367 304.373 81.1367C303.922 81.1367 303.514 81.0433 303.149 80.8564C302.789 80.6696 302.479 80.4076 302.22 80.0703C301.965 79.7331 301.769 79.3366 301.632 78.8809C301.495 78.4206 301.427 77.9215 301.427 77.3838ZM303.074 77.2402V77.3838C303.074 77.721 303.106 78.0355 303.17 78.3271C303.238 78.6188 303.341 78.8763 303.478 79.0996C303.619 79.3184 303.797 79.4915 304.011 79.6191C304.229 79.7422 304.487 79.8037 304.783 79.8037C305.171 79.8037 305.487 79.7217 305.733 79.5576C305.984 79.3936 306.175 79.1725 306.308 78.8945C306.444 78.612 306.54 78.2975 306.595 77.9512V76.7139C306.567 76.445 306.51 76.1943 306.424 75.9619C306.342 75.7295 306.23 75.5267 306.089 75.3535C305.948 75.1758 305.77 75.0391 305.556 74.9434C305.341 74.8431 305.089 74.793 304.797 74.793C304.501 74.793 304.243 74.8568 304.024 74.9844C303.806 75.112 303.626 75.2874 303.484 75.5107C303.348 75.734 303.245 75.9938 303.177 76.29C303.108 76.5863 303.074 76.903 303.074 77.2402ZM316.165 79.8242C316.434 79.8242 316.675 79.7718 316.89 79.667C317.108 79.5576 317.284 79.4072 317.416 79.2158C317.553 79.0244 317.628 78.8034 317.642 78.5527H319.193C319.184 79.0312 319.043 79.4665 318.77 79.8584C318.496 80.2503 318.134 80.5625 317.683 80.7949C317.231 81.0228 316.732 81.1367 316.186 81.1367C315.62 81.1367 315.128 81.041 314.709 80.8496C314.29 80.6536 313.941 80.3848 313.663 80.043C313.385 79.7012 313.175 79.307 313.034 78.8604C312.897 78.4137 312.829 77.9352 312.829 77.4248V77.1855C312.829 76.6751 312.897 76.1966 313.034 75.75C313.175 75.2988 313.385 74.9023 313.663 74.5605C313.941 74.2188 314.29 73.9521 314.709 73.7607C315.128 73.5648 315.618 73.4668 316.179 73.4668C316.771 73.4668 317.291 73.5853 317.737 73.8223C318.184 74.0547 318.535 74.3805 318.79 74.7998C319.05 75.2145 319.184 75.6976 319.193 76.249H317.642C317.628 75.9756 317.56 75.7295 317.437 75.5107C317.318 75.2874 317.149 75.1097 316.931 74.9775C316.716 74.8454 316.459 74.7793 316.158 74.7793C315.826 74.7793 315.55 74.8477 315.331 74.9844C315.112 75.1165 314.941 75.2988 314.818 75.5312C314.695 75.7591 314.606 76.0166 314.552 76.3037C314.502 76.5863 314.477 76.8802 314.477 77.1855V77.4248C314.477 77.7301 314.502 78.0264 314.552 78.3135C314.602 78.6006 314.688 78.8581 314.812 79.0859C314.939 79.3092 315.112 79.4893 315.331 79.626C315.55 79.7581 315.828 79.8242 316.165 79.8242ZM324.628 79.5166V75.9893C324.628 75.7249 324.58 75.4971 324.484 75.3057C324.389 75.1143 324.243 74.9661 324.047 74.8613C323.855 74.7565 323.614 74.7041 323.322 74.7041C323.053 74.7041 322.821 74.7497 322.625 74.8408C322.429 74.932 322.276 75.055 322.167 75.21C322.058 75.3649 322.003 75.5404 322.003 75.7363H320.362C320.362 75.4447 320.433 75.1621 320.574 74.8887C320.715 74.6152 320.921 74.3714 321.189 74.1572C321.458 73.943 321.78 73.7744 322.153 73.6514C322.527 73.5283 322.946 73.4668 323.411 73.4668C323.967 73.4668 324.459 73.5602 324.888 73.7471C325.321 73.9339 325.66 74.2165 325.906 74.5947C326.157 74.9684 326.282 75.4378 326.282 76.0029V79.291C326.282 79.6283 326.305 79.9313 326.351 80.2002C326.401 80.4645 326.471 80.6947 326.562 80.8906V81H324.874C324.797 80.8223 324.735 80.5967 324.689 80.3232C324.648 80.0452 324.628 79.7764 324.628 79.5166ZM324.867 76.502L324.881 77.5205H323.698C323.393 77.5205 323.124 77.5501 322.892 77.6094C322.659 77.6641 322.465 77.7461 322.311 77.8555C322.156 77.9648 322.039 78.097 321.962 78.252C321.884 78.4069 321.846 78.5824 321.846 78.7783C321.846 78.9743 321.891 79.1543 321.982 79.3184C322.074 79.4779 322.206 79.6032 322.379 79.6943C322.557 79.7855 322.771 79.8311 323.021 79.8311C323.359 79.8311 323.653 79.7627 323.903 79.626C324.159 79.4847 324.359 79.3138 324.505 79.1133C324.651 78.9082 324.728 78.7145 324.737 78.5322L325.271 79.2637C325.216 79.4505 325.122 79.651 324.99 79.8652C324.858 80.0794 324.685 80.2845 324.471 80.4805C324.261 80.6719 324.008 80.8291 323.712 80.9521C323.42 81.0752 323.083 81.1367 322.7 81.1367C322.217 81.1367 321.786 81.041 321.408 80.8496C321.03 80.6536 320.734 80.3916 320.52 80.0635C320.305 79.7308 320.198 79.3548 320.198 78.9355C320.198 78.5436 320.271 78.1973 320.417 77.8965C320.567 77.5911 320.786 77.3359 321.073 77.1309C321.365 76.9258 321.72 76.7708 322.14 76.666C322.559 76.5566 323.037 76.502 323.575 76.502H324.867ZM329.659 75.0117V81H328.012V73.6035H329.584L329.659 75.0117ZM331.922 73.5557L331.908 75.0869C331.808 75.0687 331.699 75.055 331.58 75.0459C331.466 75.0368 331.352 75.0322 331.238 75.0322C330.956 75.0322 330.707 75.0732 330.493 75.1553C330.279 75.2327 330.099 75.3467 329.953 75.4971C329.812 75.6429 329.702 75.8206 329.625 76.0303C329.548 76.2399 329.502 76.4746 329.488 76.7344L329.112 76.7617C329.112 76.2969 329.158 75.8662 329.249 75.4697C329.34 75.0732 329.477 74.7246 329.659 74.4238C329.846 74.123 330.078 73.8883 330.356 73.7197C330.639 73.5511 330.965 73.4668 331.334 73.4668C331.434 73.4668 331.541 73.4759 331.655 73.4941C331.774 73.5124 331.863 73.5329 331.922 73.5557ZM336.687 73.6035V74.8066H332.517V73.6035H336.687ZM333.72 71.792H335.367V78.9561C335.367 79.1839 335.399 79.3594 335.463 79.4824C335.531 79.6009 335.625 79.6807 335.743 79.7217C335.862 79.7627 336.001 79.7832 336.16 79.7832C336.274 79.7832 336.383 79.7764 336.488 79.7627C336.593 79.749 336.677 79.7354 336.741 79.7217L336.748 80.9795C336.611 81.0205 336.452 81.057 336.27 81.0889C336.092 81.1208 335.887 81.1367 335.654 81.1367C335.276 81.1367 334.941 81.0706 334.649 80.9385C334.358 80.8018 334.13 80.5807 333.966 80.2754C333.802 79.9701 333.72 79.5645 333.72 79.0586V71.792Z" fill="black"/>
<rect x="661" y="1" width="38" height="38" rx="19" stroke="#CDCDCD" stroke-width="2"/>
<path d="M679.18 18.8594V20.7188C679.18 21.6094 679.091 22.3698 678.914 23C678.742 23.625 678.492 24.1328 678.164 24.5234C677.836 24.9141 677.443 25.2005 676.984 25.3828C676.531 25.5651 676.023 25.6562 675.461 25.6562C675.013 25.6562 674.596 25.599 674.211 25.4844C673.831 25.3698 673.487 25.1901 673.18 24.9453C672.872 24.7005 672.609 24.3854 672.391 24C672.177 23.6094 672.01 23.1432 671.891 22.6016C671.776 22.0599 671.719 21.4323 671.719 20.7188V18.8594C671.719 17.9635 671.807 17.2083 671.984 16.5938C672.161 15.974 672.414 15.4714 672.742 15.0859C673.07 14.6953 673.461 14.4115 673.914 14.2344C674.372 14.0573 674.883 13.9688 675.445 13.9688C675.898 13.9688 676.315 14.026 676.695 14.1406C677.081 14.25 677.424 14.4245 677.727 14.6641C678.034 14.9036 678.294 15.2161 678.508 15.6016C678.727 15.9818 678.893 16.4427 679.008 16.9844C679.122 17.5208 679.18 18.1458 679.18 18.8594ZM677.297 20.9844V18.5781C677.297 18.125 677.271 17.7266 677.219 17.3828C677.167 17.0339 677.089 16.7396 676.984 16.5C676.885 16.2552 676.76 16.0573 676.609 15.9062C676.458 15.75 676.286 15.638 676.094 15.5703C675.901 15.4974 675.685 15.4609 675.445 15.4609C675.154 15.4609 674.893 15.5182 674.664 15.6328C674.435 15.7422 674.242 15.9193 674.086 16.1641C673.93 16.4089 673.81 16.7318 673.727 17.1328C673.648 17.5286 673.609 18.0104 673.609 18.5781V20.9844C673.609 21.4427 673.635 21.8464 673.688 22.1953C673.74 22.5443 673.818 22.8438 673.922 23.0938C674.026 23.3385 674.151 23.5417 674.297 23.7031C674.448 23.8594 674.62 23.974 674.812 24.0469C675.01 24.1198 675.227 24.1562 675.461 24.1562C675.758 24.1562 676.021 24.099 676.25 23.9844C676.479 23.8698 676.672 23.6875 676.828 23.4375C676.984 23.1823 677.102 22.8516 677.18 22.4453C677.258 22.0391 677.297 21.5521 677.297 20.9844ZM688.484 24V25.5H680.859V24.2109L684.562 20.1719C684.969 19.7135 685.289 19.3177 685.523 18.9844C685.758 18.651 685.922 18.3516 686.016 18.0859C686.115 17.8151 686.164 17.5521 686.164 17.2969C686.164 16.9375 686.096 16.6224 685.961 16.3516C685.831 16.0755 685.638 15.8594 685.383 15.7031C685.128 15.5417 684.818 15.4609 684.453 15.4609C684.031 15.4609 683.677 15.5521 683.391 15.7344C683.104 15.9167 682.888 16.1693 682.742 16.4922C682.596 16.8099 682.523 17.1745 682.523 17.5859H680.641C680.641 16.9245 680.792 16.3203 681.094 15.7734C681.396 15.2214 681.833 14.7839 682.406 14.4609C682.979 14.1328 683.669 13.9688 684.477 13.9688C685.237 13.9688 685.883 14.0964 686.414 14.3516C686.945 14.6068 687.349 14.9688 687.625 15.4375C687.906 15.9062 688.047 16.4609 688.047 17.1016C688.047 17.4557 687.99 17.8073 687.875 18.1562C687.76 18.5052 687.596 18.8542 687.383 19.2031C687.174 19.5469 686.927 19.8932 686.641 20.2422C686.354 20.5859 686.039 20.9349 685.695 21.2891L683.234 24H688.484Z" fill="#CDCDCD"/>
<path d="M632.039 78.4365C632.039 78.2314 632.007 78.0492 631.943 77.8896C631.884 77.7301 631.777 77.5843 631.622 77.4521C631.467 77.32 631.248 77.1924 630.966 77.0693C630.688 76.9417 630.332 76.8118 629.899 76.6797C629.425 76.5339 628.988 76.3721 628.587 76.1943C628.19 76.012 627.844 75.8024 627.548 75.5654C627.252 75.3239 627.021 75.0482 626.857 74.7383C626.693 74.4238 626.611 74.0615 626.611 73.6514C626.611 73.2458 626.696 72.8766 626.864 72.5439C627.037 72.2113 627.281 71.9242 627.596 71.6826C627.915 71.4365 628.291 71.2474 628.724 71.1152C629.157 70.9785 629.635 70.9102 630.159 70.9102C630.897 70.9102 631.533 71.0469 632.066 71.3203C632.604 71.5938 633.017 71.9606 633.304 72.4209C633.595 72.8812 633.741 73.3893 633.741 73.9453H632.039C632.039 73.6172 631.968 73.3278 631.827 73.0771C631.69 72.8219 631.481 72.6214 631.198 72.4756C630.92 72.3298 630.567 72.2568 630.139 72.2568C629.733 72.2568 629.396 72.3184 629.127 72.4414C628.858 72.5645 628.658 72.7308 628.525 72.9404C628.393 73.1501 628.327 73.387 628.327 73.6514C628.327 73.8382 628.37 74.0091 628.457 74.1641C628.544 74.3145 628.676 74.4557 628.854 74.5879C629.031 74.7155 629.255 74.8363 629.523 74.9502C629.792 75.0641 630.109 75.1735 630.474 75.2783C631.025 75.4424 631.506 75.6247 631.916 75.8252C632.326 76.0212 632.668 76.2445 632.941 76.4951C633.215 76.7458 633.42 77.0306 633.557 77.3496C633.693 77.6641 633.762 78.0218 633.762 78.4229C633.762 78.8421 633.677 79.2204 633.509 79.5576C633.34 79.8903 633.099 80.1751 632.784 80.4121C632.474 80.6445 632.101 80.8245 631.663 80.9521C631.23 81.0752 630.747 81.1367 630.214 81.1367C629.735 81.1367 629.264 81.0729 628.799 80.9453C628.339 80.8177 627.919 80.624 627.541 80.3643C627.163 80.0999 626.862 79.7718 626.639 79.3799C626.415 78.9834 626.304 78.5208 626.304 77.9922H628.02C628.02 78.3158 628.074 78.5915 628.184 78.8193C628.298 79.0472 628.455 79.234 628.655 79.3799C628.856 79.5212 629.088 79.626 629.353 79.6943C629.621 79.7627 629.909 79.7969 630.214 79.7969C630.615 79.7969 630.95 79.7399 631.219 79.626C631.492 79.512 631.697 79.3525 631.834 79.1475C631.971 78.9424 632.039 78.7054 632.039 78.4365ZM636.742 70.5V81H635.102V70.5H636.742ZM636.455 77.0283L635.922 77.0215C635.926 76.5111 635.997 76.0394 636.134 75.6064C636.275 75.1735 636.471 74.7975 636.722 74.4785C636.977 74.1549 637.282 73.9066 637.638 73.7334C637.993 73.5557 638.387 73.4668 638.82 73.4668C639.185 73.4668 639.513 73.5169 639.805 73.6172C640.101 73.7174 640.356 73.8792 640.57 74.1025C640.785 74.3213 640.946 74.6084 641.056 74.9639C641.17 75.3148 641.227 75.7432 641.227 76.249V81H639.572V76.2354C639.572 75.8799 639.52 75.5973 639.415 75.3877C639.315 75.1781 639.167 75.0277 638.971 74.9365C638.775 74.8408 638.535 74.793 638.253 74.793C637.957 74.793 637.695 74.8522 637.467 74.9707C637.243 75.0892 637.057 75.251 636.906 75.4561C636.756 75.6611 636.642 75.8981 636.564 76.167C636.492 76.4359 636.455 76.723 636.455 77.0283ZM644.658 73.6035V81H643.004V73.6035H644.658ZM642.895 71.6621C642.895 71.4115 642.977 71.2041 643.141 71.04C643.309 70.8714 643.542 70.7871 643.838 70.7871C644.13 70.7871 644.36 70.8714 644.528 71.04C644.697 71.2041 644.781 71.4115 644.781 71.6621C644.781 71.9082 644.697 72.1133 644.528 72.2773C644.36 72.4414 644.13 72.5234 643.838 72.5234C643.542 72.5234 643.309 72.4414 643.141 72.2773C642.977 72.1133 642.895 71.9082 642.895 71.6621ZM648.117 75.0254V83.8438H646.47V73.6035H647.987L648.117 75.0254ZM652.937 77.2334V77.377C652.937 77.9147 652.873 78.4137 652.745 78.874C652.622 79.3298 652.438 79.7285 652.191 80.0703C651.95 80.4076 651.651 80.6696 651.296 80.8564C650.94 81.0433 650.53 81.1367 650.065 81.1367C649.605 81.1367 649.202 81.0524 648.855 80.8838C648.514 80.7106 648.224 80.4668 647.987 80.1523C647.75 79.8379 647.559 79.4688 647.413 79.0449C647.272 78.6165 647.172 78.1471 647.112 77.6367V77.083C647.172 76.5407 647.272 76.0485 647.413 75.6064C647.559 75.1644 647.75 74.7839 647.987 74.4648C648.224 74.1458 648.514 73.8997 648.855 73.7266C649.197 73.5534 649.596 73.4668 650.052 73.4668C650.517 73.4668 650.929 73.5579 651.289 73.7402C651.649 73.918 651.952 74.1732 652.198 74.5059C652.444 74.834 652.629 75.2305 652.752 75.6953C652.875 76.1556 652.937 76.6683 652.937 77.2334ZM651.289 77.377V77.2334C651.289 76.8916 651.257 76.5749 651.193 76.2832C651.13 75.987 651.029 75.7272 650.893 75.5039C650.756 75.2806 650.58 75.1074 650.366 74.9844C650.157 74.8568 649.904 74.793 649.607 74.793C649.316 74.793 649.065 74.8431 648.855 74.9434C648.646 75.0391 648.47 75.1735 648.329 75.3467C648.188 75.5199 648.078 75.7227 648.001 75.9551C647.924 76.1829 647.869 76.4313 647.837 76.7002V78.0264C647.892 78.3545 647.985 78.6553 648.117 78.9287C648.249 79.2021 648.436 79.4209 648.678 79.585C648.924 79.7445 649.238 79.8242 649.621 79.8242C649.917 79.8242 650.17 79.7604 650.38 79.6328C650.59 79.5052 650.76 79.3298 650.893 79.1064C651.029 78.8786 651.13 78.6165 651.193 78.3203C651.257 78.0241 651.289 77.7096 651.289 77.377ZM655.992 75.0254V83.8438H654.345V73.6035H655.862L655.992 75.0254ZM660.812 77.2334V77.377C660.812 77.9147 660.748 78.4137 660.62 78.874C660.497 79.3298 660.312 79.7285 660.066 80.0703C659.825 80.4076 659.526 80.6696 659.171 80.8564C658.815 81.0433 658.405 81.1367 657.94 81.1367C657.48 81.1367 657.077 81.0524 656.73 80.8838C656.389 80.7106 656.099 80.4668 655.862 80.1523C655.625 79.8379 655.434 79.4688 655.288 79.0449C655.147 78.6165 655.047 78.1471 654.987 77.6367V77.083C655.047 76.5407 655.147 76.0485 655.288 75.6064C655.434 75.1644 655.625 74.7839 655.862 74.4648C656.099 74.1458 656.389 73.8997 656.73 73.7266C657.072 73.5534 657.471 73.4668 657.927 73.4668C658.392 73.4668 658.804 73.5579 659.164 73.7402C659.524 73.918 659.827 74.1732 660.073 74.5059C660.319 74.834 660.504 75.2305 660.627 75.6953C660.75 76.1556 660.812 76.6683 660.812 77.2334ZM659.164 77.377V77.2334C659.164 76.8916 659.132 76.5749 659.068 76.2832C659.005 75.987 658.904 75.7272 658.768 75.5039C658.631 75.2806 658.455 75.1074 658.241 74.9844C658.032 74.8568 657.779 74.793 657.482 74.793C657.191 74.793 656.94 74.8431 656.73 74.9434C656.521 75.0391 656.345 75.1735 656.204 75.3467C656.063 75.5199 655.953 75.7227 655.876 75.9551C655.799 76.1829 655.744 76.4313 655.712 76.7002V78.0264C655.767 78.3545 655.86 78.6553 655.992 78.9287C656.124 79.2021 656.311 79.4209 656.553 79.585C656.799 79.7445 657.113 79.8242 657.496 79.8242C657.792 79.8242 658.045 79.7604 658.255 79.6328C658.465 79.5052 658.635 79.3298 658.768 79.1064C658.904 78.8786 659.005 78.6165 659.068 78.3203C659.132 78.0241 659.164 77.7096 659.164 77.377ZM663.977 73.6035V81H662.322V73.6035H663.977ZM662.213 71.6621C662.213 71.4115 662.295 71.2041 662.459 71.04C662.628 70.8714 662.86 70.7871 663.156 70.7871C663.448 70.7871 663.678 70.8714 663.847 71.04C664.015 71.2041 664.1 71.4115 664.1 71.6621C664.1 71.9082 664.015 72.1133 663.847 72.2773C663.678 72.4414 663.448 72.5234 663.156 72.5234C662.86 72.5234 662.628 72.4414 662.459 72.2773C662.295 72.1133 662.213 71.9082 662.213 71.6621ZM667.415 75.1826V81H665.768V73.6035H667.319L667.415 75.1826ZM667.121 77.0283L666.588 77.0215C666.592 76.4974 666.665 76.0166 666.807 75.5791C666.952 75.1416 667.153 74.7656 667.408 74.4512C667.668 74.1367 667.978 73.8952 668.338 73.7266C668.698 73.5534 669.099 73.4668 669.541 73.4668C669.896 73.4668 670.218 73.5169 670.505 73.6172C670.797 73.7129 671.045 73.8701 671.25 74.0889C671.46 74.3076 671.619 74.5924 671.729 74.9434C671.838 75.2897 671.893 75.7158 671.893 76.2217V81H670.238V76.2148C670.238 75.8594 670.186 75.5791 670.081 75.374C669.981 75.1644 669.833 75.0163 669.637 74.9297C669.445 74.8385 669.206 74.793 668.919 74.793C668.636 74.793 668.383 74.8522 668.16 74.9707C667.937 75.0892 667.748 75.251 667.593 75.4561C667.442 75.6611 667.326 75.8981 667.244 76.167C667.162 76.4359 667.121 76.723 667.121 77.0283ZM678.312 73.6035H679.809V80.7949C679.809 81.4603 679.667 82.0254 679.385 82.4902C679.102 82.9551 678.708 83.3083 678.202 83.5498C677.696 83.7959 677.111 83.9189 676.445 83.9189C676.163 83.9189 675.848 83.8779 675.502 83.7959C675.16 83.7139 674.827 83.5817 674.504 83.3994C674.185 83.2217 673.918 82.987 673.704 82.6953L674.477 81.7246C674.741 82.0391 675.033 82.2692 675.352 82.415C675.671 82.5609 676.006 82.6338 676.356 82.6338C676.735 82.6338 677.056 82.5632 677.32 82.4219C677.589 82.2852 677.797 82.0824 677.942 81.8135C678.088 81.5446 678.161 81.2165 678.161 80.8291V75.2783L678.312 73.6035ZM673.287 77.3838V77.2402C673.287 76.6797 673.355 76.1693 673.492 75.709C673.629 75.2441 673.825 74.8454 674.08 74.5127C674.335 74.1755 674.645 73.918 675.01 73.7402C675.374 73.5579 675.787 73.4668 676.247 73.4668C676.726 73.4668 677.133 73.5534 677.471 73.7266C677.812 73.8997 678.097 74.1481 678.325 74.4717C678.553 74.7907 678.731 75.1735 678.858 75.6201C678.991 76.0622 679.089 76.5544 679.152 77.0967V77.5547C679.093 78.0833 678.993 78.5664 678.852 79.0039C678.71 79.4414 678.523 79.8197 678.291 80.1387C678.059 80.4577 677.771 80.7038 677.43 80.877C677.092 81.0501 676.694 81.1367 676.233 81.1367C675.782 81.1367 675.374 81.0433 675.01 80.8564C674.65 80.6696 674.34 80.4076 674.08 80.0703C673.825 79.7331 673.629 79.3366 673.492 78.8809C673.355 78.4206 673.287 77.9215 673.287 77.3838ZM674.935 77.2402V77.3838C674.935 77.721 674.966 78.0355 675.03 78.3271C675.099 78.6188 675.201 78.8763 675.338 79.0996C675.479 79.3184 675.657 79.4915 675.871 79.6191C676.09 79.7422 676.347 79.8037 676.644 79.8037C677.031 79.8037 677.348 79.7217 677.594 79.5576C677.844 79.3936 678.036 79.1725 678.168 78.8945C678.305 78.612 678.4 78.2975 678.455 77.9512V76.7139C678.428 76.445 678.371 76.1943 678.284 75.9619C678.202 75.7295 678.09 75.5267 677.949 75.3535C677.808 75.1758 677.63 75.0391 677.416 74.9434C677.202 74.8431 676.949 74.793 676.657 74.793C676.361 74.793 676.104 74.8568 675.885 74.9844C675.666 75.112 675.486 75.2874 675.345 75.5107C675.208 75.734 675.105 75.9938 675.037 76.29C674.969 76.5863 674.935 76.903 674.935 77.2402ZM689.174 79.5166V75.9893C689.174 75.7249 689.126 75.4971 689.03 75.3057C688.935 75.1143 688.789 74.9661 688.593 74.8613C688.401 74.7565 688.16 74.7041 687.868 74.7041C687.599 74.7041 687.367 74.7497 687.171 74.8408C686.975 74.932 686.822 75.055 686.713 75.21C686.604 75.3649 686.549 75.5404 686.549 75.7363H684.908C684.908 75.4447 684.979 75.1621 685.12 74.8887C685.261 74.6152 685.466 74.3714 685.735 74.1572C686.004 73.943 686.326 73.7744 686.699 73.6514C687.073 73.5283 687.492 73.4668 687.957 73.4668C688.513 73.4668 689.005 73.5602 689.434 73.7471C689.867 73.9339 690.206 74.2165 690.452 74.5947C690.703 74.9684 690.828 75.4378 690.828 76.0029V79.291C690.828 79.6283 690.851 79.9313 690.896 80.2002C690.947 80.4645 691.017 80.6947 691.108 80.8906V81H689.42C689.342 80.8223 689.281 80.5967 689.235 80.3232C689.194 80.0452 689.174 79.7764 689.174 79.5166ZM689.413 76.502L689.427 77.5205H688.244C687.939 77.5205 687.67 77.5501 687.438 77.6094C687.205 77.6641 687.011 77.7461 686.856 77.8555C686.701 77.9648 686.585 78.097 686.508 78.252C686.43 78.4069 686.392 78.5824 686.392 78.7783C686.392 78.9743 686.437 79.1543 686.528 79.3184C686.619 79.4779 686.752 79.6032 686.925 79.6943C687.103 79.7855 687.317 79.8311 687.567 79.8311C687.905 79.8311 688.199 79.7627 688.449 79.626C688.704 79.4847 688.905 79.3138 689.051 79.1133C689.197 78.9082 689.274 78.7145 689.283 78.5322L689.816 79.2637C689.762 79.4505 689.668 79.651 689.536 79.8652C689.404 80.0794 689.231 80.2845 689.017 80.4805C688.807 80.6719 688.554 80.8291 688.258 80.9521C687.966 81.0752 687.629 81.1367 687.246 81.1367C686.763 81.1367 686.332 81.041 685.954 80.8496C685.576 80.6536 685.28 80.3916 685.065 80.0635C684.851 79.7308 684.744 79.3548 684.744 78.9355C684.744 78.5436 684.817 78.1973 684.963 77.8965C685.113 77.5911 685.332 77.3359 685.619 77.1309C685.911 76.9258 686.266 76.7708 686.686 76.666C687.105 76.5566 687.583 76.502 688.121 76.502H689.413ZM697.062 79.4688V70.5H698.717V81H697.22L697.062 79.4688ZM692.25 77.3838V77.2402C692.25 76.6797 692.316 76.1693 692.448 75.709C692.58 75.2441 692.772 74.8454 693.022 74.5127C693.273 74.1755 693.578 73.918 693.938 73.7402C694.299 73.5579 694.704 73.4668 695.155 73.4668C695.602 73.4668 695.994 73.5534 696.331 73.7266C696.668 73.8997 696.955 74.1481 697.192 74.4717C697.429 74.7907 697.618 75.1735 697.76 75.6201C697.901 76.0622 698.001 76.5544 698.061 77.0967V77.5547C698.001 78.0833 697.901 78.5664 697.76 79.0039C697.618 79.4414 697.429 79.8197 697.192 80.1387C696.955 80.4577 696.666 80.7038 696.324 80.877C695.987 81.0501 695.593 81.1367 695.142 81.1367C694.695 81.1367 694.292 81.0433 693.932 80.8564C693.576 80.6696 693.273 80.4076 693.022 80.0703C692.772 79.7331 692.58 79.3366 692.448 78.8809C692.316 78.4206 692.25 77.9215 692.25 77.3838ZM693.897 77.2402V77.3838C693.897 77.721 693.927 78.0355 693.986 78.3271C694.05 78.6188 694.148 78.8763 694.28 79.0996C694.412 79.3184 694.583 79.4915 694.793 79.6191C695.007 79.7422 695.262 79.8037 695.559 79.8037C695.932 79.8037 696.24 79.7217 696.481 79.5576C696.723 79.3936 696.912 79.1725 697.049 78.8945C697.19 78.612 697.286 78.2975 697.336 77.9512V76.7139C697.309 76.445 697.252 76.1943 697.165 75.9619C697.083 75.7295 696.971 75.5267 696.83 75.3535C696.689 75.1758 696.513 75.0391 696.304 74.9434C696.099 74.8431 695.855 74.793 695.572 74.793C695.271 74.793 695.016 74.8568 694.807 74.9844C694.597 75.112 694.424 75.2874 694.287 75.5107C694.155 75.734 694.057 75.9938 693.993 76.29C693.929 76.5863 693.897 76.903 693.897 77.2402ZM704.951 79.4688V70.5H706.605V81H705.108L704.951 79.4688ZM700.139 77.3838V77.2402C700.139 76.6797 700.205 76.1693 700.337 75.709C700.469 75.2441 700.66 74.8454 700.911 74.5127C701.162 74.1755 701.467 73.918 701.827 73.7402C702.187 73.5579 702.593 73.4668 703.044 73.4668C703.491 73.4668 703.882 73.5534 704.22 73.7266C704.557 73.8997 704.844 74.1481 705.081 74.4717C705.318 74.7907 705.507 75.1735 705.648 75.6201C705.79 76.0622 705.89 76.5544 705.949 77.0967V77.5547C705.89 78.0833 705.79 78.5664 705.648 79.0039C705.507 79.4414 705.318 79.8197 705.081 80.1387C704.844 80.4577 704.555 80.7038 704.213 80.877C703.876 81.0501 703.481 81.1367 703.03 81.1367C702.584 81.1367 702.18 81.0433 701.82 80.8564C701.465 80.6696 701.162 80.4076 700.911 80.0703C700.66 79.7331 700.469 79.3366 700.337 78.8809C700.205 78.4206 700.139 77.9215 700.139 77.3838ZM701.786 77.2402V77.3838C701.786 77.721 701.816 78.0355 701.875 78.3271C701.939 78.6188 702.037 78.8763 702.169 79.0996C702.301 79.3184 702.472 79.4915 702.682 79.6191C702.896 79.7422 703.151 79.8037 703.447 79.8037C703.821 79.8037 704.129 79.7217 704.37 79.5576C704.612 79.3936 704.801 79.1725 704.938 78.8945C705.079 78.612 705.174 78.2975 705.225 77.9512V76.7139C705.197 76.445 705.14 76.1943 705.054 75.9619C704.972 75.7295 704.86 75.5267 704.719 75.3535C704.577 75.1758 704.402 75.0391 704.192 74.9434C703.987 74.8431 703.743 74.793 703.461 74.793C703.16 74.793 702.905 74.8568 702.695 74.9844C702.486 75.112 702.312 75.2874 702.176 75.5107C702.044 75.734 701.946 75.9938 701.882 76.29C701.818 76.5863 701.786 76.903 701.786 77.2402ZM709.982 75.0117V81H708.335V73.6035H709.907L709.982 75.0117ZM712.245 73.5557L712.231 75.0869C712.131 75.0687 712.022 75.055 711.903 75.0459C711.789 75.0368 711.675 75.0322 711.562 75.0322C711.279 75.0322 711.031 75.0732 710.816 75.1553C710.602 75.2327 710.422 75.3467 710.276 75.4971C710.135 75.6429 710.026 75.8206 709.948 76.0303C709.871 76.2399 709.825 76.4746 709.812 76.7344L709.436 76.7617C709.436 76.2969 709.481 75.8662 709.572 75.4697C709.663 75.0732 709.8 74.7246 709.982 74.4238C710.169 74.123 710.402 73.8883 710.68 73.7197C710.962 73.5511 711.288 73.4668 711.657 73.4668C711.757 73.4668 711.865 73.4759 711.979 73.4941C712.097 73.5124 712.186 73.5329 712.245 73.5557ZM716.401 81.1367C715.854 81.1367 715.36 81.0479 714.918 80.8701C714.48 80.6878 714.107 80.4349 713.797 80.1113C713.492 79.7878 713.257 79.4072 713.093 78.9697C712.929 78.5322 712.847 78.0605 712.847 77.5547V77.2812C712.847 76.7025 712.931 76.1784 713.1 75.709C713.268 75.2396 713.503 74.8385 713.804 74.5059C714.104 74.1686 714.46 73.9111 714.87 73.7334C715.28 73.5557 715.725 73.4668 716.203 73.4668C716.732 73.4668 717.194 73.5557 717.591 73.7334C717.987 73.9111 718.315 74.1618 718.575 74.4854C718.84 74.8044 719.035 75.1849 719.163 75.627C719.295 76.069 719.361 76.5566 719.361 77.0898V77.7939H713.646V76.6113H717.734V76.4814C717.725 76.1852 717.666 75.9072 717.557 75.6475C717.452 75.3877 717.29 75.1781 717.071 75.0186C716.853 74.859 716.561 74.7793 716.196 74.7793C715.923 74.7793 715.679 74.8385 715.465 74.957C715.255 75.071 715.08 75.2373 714.938 75.4561C714.797 75.6748 714.688 75.9391 714.61 76.249C714.537 76.5544 714.501 76.8984 714.501 77.2812V77.5547C714.501 77.8783 714.544 78.179 714.631 78.457C714.722 78.7305 714.854 78.9697 715.027 79.1748C715.201 79.3799 715.41 79.5417 715.656 79.6602C715.902 79.7741 716.183 79.8311 716.497 79.8311C716.894 79.8311 717.247 79.7513 717.557 79.5918C717.867 79.4323 718.135 79.2067 718.363 78.915L719.231 79.7559C719.072 79.9883 718.865 80.2116 718.609 80.4258C718.354 80.6354 718.042 80.8063 717.673 80.9385C717.308 81.0706 716.884 81.1367 716.401 81.1367ZM724.796 78.9971C724.796 78.833 724.755 78.6849 724.673 78.5527C724.591 78.416 724.434 78.293 724.201 78.1836C723.973 78.0742 723.636 77.974 723.189 77.8828C722.798 77.7962 722.438 77.6937 722.109 77.5752C721.786 77.4521 721.508 77.304 721.275 77.1309C721.043 76.9577 720.863 76.7526 720.735 76.5156C720.608 76.2786 720.544 76.0052 720.544 75.6953C720.544 75.3945 720.61 75.1097 720.742 74.8408C720.874 74.5719 721.063 74.335 721.31 74.1299C721.556 73.9248 721.854 73.763 722.205 73.6445C722.561 73.526 722.957 73.4668 723.395 73.4668C724.014 73.4668 724.545 73.5716 724.987 73.7812C725.434 73.9863 725.776 74.2666 726.013 74.6221C726.25 74.973 726.368 75.3695 726.368 75.8115H724.721C724.721 75.6156 724.671 75.4333 724.57 75.2646C724.475 75.0915 724.329 74.9525 724.133 74.8477C723.937 74.7383 723.691 74.6836 723.395 74.6836C723.112 74.6836 722.877 74.7292 722.69 74.8203C722.508 74.9069 722.371 75.0208 722.28 75.1621C722.194 75.3034 722.15 75.4583 722.15 75.627C722.15 75.75 722.173 75.8617 722.219 75.9619C722.269 76.0576 722.351 76.1465 722.465 76.2285C722.579 76.306 722.734 76.3789 722.93 76.4473C723.13 76.5156 723.381 76.5817 723.682 76.6455C724.247 76.764 724.732 76.9167 725.138 77.1035C725.548 77.2858 725.862 77.5228 726.081 77.8145C726.3 78.1016 726.409 78.4661 726.409 78.9082C726.409 79.2363 726.339 79.5371 726.197 79.8105C726.061 80.0794 725.86 80.3141 725.596 80.5146C725.331 80.7106 725.015 80.8633 724.646 80.9727C724.281 81.082 723.871 81.1367 723.415 81.1367C722.745 81.1367 722.178 81.0182 721.713 80.7812C721.248 80.5397 720.895 80.2321 720.653 79.8584C720.416 79.4801 720.298 79.0882 720.298 78.6826H721.891C721.909 78.988 721.993 79.2318 722.144 79.4141C722.299 79.5918 722.49 79.7217 722.718 79.8037C722.95 79.8812 723.189 79.9199 723.436 79.9199C723.732 79.9199 723.98 79.8812 724.181 79.8037C724.381 79.7217 724.534 79.6123 724.639 79.4756C724.743 79.3343 724.796 79.1748 724.796 78.9971ZM732.001 78.9971C732.001 78.833 731.96 78.6849 731.878 78.5527C731.796 78.416 731.639 78.293 731.406 78.1836C731.178 78.0742 730.841 77.974 730.395 77.8828C730.003 77.7962 729.643 77.6937 729.314 77.5752C728.991 77.4521 728.713 77.304 728.48 77.1309C728.248 76.9577 728.068 76.7526 727.94 76.5156C727.813 76.2786 727.749 76.0052 727.749 75.6953C727.749 75.3945 727.815 75.1097 727.947 74.8408C728.079 74.5719 728.269 74.335 728.515 74.1299C728.761 73.9248 729.059 73.763 729.41 73.6445C729.766 73.526 730.162 73.4668 730.6 73.4668C731.219 73.4668 731.75 73.5716 732.192 73.7812C732.639 73.9863 732.981 74.2666 733.218 74.6221C733.455 74.973 733.573 75.3695 733.573 75.8115H731.926C731.926 75.6156 731.876 75.4333 731.775 75.2646C731.68 75.0915 731.534 74.9525 731.338 74.8477C731.142 74.7383 730.896 74.6836 730.6 74.6836C730.317 74.6836 730.082 74.7292 729.896 74.8203C729.713 74.9069 729.576 75.0208 729.485 75.1621C729.399 75.3034 729.355 75.4583 729.355 75.627C729.355 75.75 729.378 75.8617 729.424 75.9619C729.474 76.0576 729.556 76.1465 729.67 76.2285C729.784 76.306 729.939 76.3789 730.135 76.4473C730.335 76.5156 730.586 76.5817 730.887 76.6455C731.452 76.764 731.937 76.9167 732.343 77.1035C732.753 77.2858 733.067 77.5228 733.286 77.8145C733.505 78.1016 733.614 78.4661 733.614 78.9082C733.614 79.2363 733.544 79.5371 733.402 79.8105C733.266 80.0794 733.065 80.3141 732.801 80.5146C732.536 80.7106 732.22 80.8633 731.851 80.9727C731.486 81.082 731.076 81.1367 730.62 81.1367C729.95 81.1367 729.383 81.0182 728.918 80.7812C728.453 80.5397 728.1 80.2321 727.858 79.8584C727.621 79.4801 727.503 79.0882 727.503 78.6826H729.096C729.114 78.988 729.198 79.2318 729.349 79.4141C729.504 79.5918 729.695 79.7217 729.923 79.8037C730.155 79.8812 730.395 79.9199 730.641 79.9199C730.937 79.9199 731.185 79.8812 731.386 79.8037C731.586 79.7217 731.739 79.6123 731.844 79.4756C731.949 79.3343 732.001 79.1748 732.001 78.9971Z" fill="#CDCDCD"/>
<rect x="1047.67" y="1" width="38" height="38" rx="19" fill="white"/>
<rect x="1047.67" y="1" width="38" height="38" rx="19" stroke="#CDCDCD" stroke-width="2"/>
<path d="M1065.85 18.8594V20.7188C1065.85 21.6094 1065.76 22.3698 1065.58 23C1065.41 23.625 1065.16 24.1328 1064.83 24.5234C1064.5 24.9141 1064.11 25.2005 1063.65 25.3828C1063.2 25.5651 1062.69 25.6562 1062.13 25.6562C1061.68 25.6562 1061.26 25.599 1060.88 25.4844C1060.5 25.3698 1060.15 25.1901 1059.85 24.9453C1059.54 24.7005 1059.28 24.3854 1059.06 24C1058.84 23.6094 1058.68 23.1432 1058.56 22.6016C1058.44 22.0599 1058.38 21.4323 1058.38 20.7188V18.8594C1058.38 17.9635 1058.47 17.2083 1058.65 16.5938C1058.83 15.974 1059.08 15.4714 1059.41 15.0859C1059.74 14.6953 1060.13 14.4115 1060.58 14.2344C1061.04 14.0573 1061.55 13.9688 1062.11 13.9688C1062.56 13.9688 1062.98 14.026 1063.36 14.1406C1063.75 14.25 1064.09 14.4245 1064.39 14.6641C1064.7 14.9036 1064.96 15.2161 1065.17 15.6016C1065.39 15.9818 1065.56 16.4427 1065.67 16.9844C1065.79 17.5208 1065.85 18.1458 1065.85 18.8594ZM1063.96 20.9844V18.5781C1063.96 18.125 1063.94 17.7266 1063.88 17.3828C1063.83 17.0339 1063.75 16.7396 1063.65 16.5C1063.55 16.2552 1063.43 16.0573 1063.28 15.9062C1063.12 15.75 1062.95 15.638 1062.76 15.5703C1062.57 15.4974 1062.35 15.4609 1062.11 15.4609C1061.82 15.4609 1061.56 15.5182 1061.33 15.6328C1061.1 15.7422 1060.91 15.9193 1060.75 16.1641C1060.6 16.4089 1060.48 16.7318 1060.39 17.1328C1060.31 17.5286 1060.28 18.0104 1060.28 18.5781V20.9844C1060.28 21.4427 1060.3 21.8464 1060.35 22.1953C1060.41 22.5443 1060.48 22.8438 1060.59 23.0938C1060.69 23.3385 1060.82 23.5417 1060.96 23.7031C1061.11 23.8594 1061.29 23.974 1061.48 24.0469C1061.68 24.1198 1061.89 24.1562 1062.13 24.1562C1062.42 24.1562 1062.69 24.099 1062.92 23.9844C1063.15 23.8698 1063.34 23.6875 1063.49 23.4375C1063.65 23.1823 1063.77 22.8516 1063.85 22.4453C1063.92 22.0391 1063.96 21.5521 1063.96 20.9844ZM1069.74 18.9609H1070.86C1071.3 18.9609 1071.66 18.8854 1071.95 18.7344C1072.24 18.5833 1072.46 18.375 1072.6 18.1094C1072.74 17.8438 1072.81 17.5391 1072.81 17.1953C1072.81 16.8359 1072.74 16.5286 1072.61 16.2734C1072.49 16.013 1072.29 15.8125 1072.03 15.6719C1071.78 15.5312 1071.45 15.4609 1071.06 15.4609C1070.72 15.4609 1070.42 15.5286 1070.15 15.6641C1069.88 15.7943 1069.67 15.9818 1069.52 16.2266C1069.36 16.4661 1069.28 16.7526 1069.28 17.0859H1067.39C1067.39 16.4818 1067.55 15.9453 1067.87 15.4766C1068.19 15.0078 1068.62 14.6406 1069.17 14.375C1069.72 14.1042 1070.34 13.9688 1071.03 13.9688C1071.76 13.9688 1072.4 14.0911 1072.95 14.3359C1073.5 14.5755 1073.93 14.9349 1074.24 15.4141C1074.54 15.8932 1074.7 16.487 1074.7 17.1953C1074.7 17.5182 1074.62 17.8464 1074.47 18.1797C1074.32 18.513 1074.1 18.8177 1073.8 19.0938C1073.5 19.3646 1073.13 19.5859 1072.69 19.7578C1072.25 19.9245 1071.73 20.0078 1071.15 20.0078H1069.74V18.9609ZM1069.74 20.4297V19.3984H1071.15C1071.82 19.3984 1072.38 19.4766 1072.85 19.6328C1073.33 19.7891 1073.71 20.0052 1074.01 20.2812C1074.31 20.5521 1074.52 20.862 1074.66 21.2109C1074.8 21.5599 1074.87 21.9297 1074.87 22.3203C1074.87 22.8516 1074.77 23.3255 1074.58 23.7422C1074.39 24.1536 1074.12 24.5026 1073.78 24.7891C1073.43 25.0755 1073.02 25.2917 1072.55 25.4375C1072.09 25.5833 1071.58 25.6562 1071.03 25.6562C1070.54 25.6562 1070.07 25.5885 1069.63 25.4531C1069.18 25.3177 1068.78 25.1172 1068.42 24.8516C1068.07 24.5807 1067.79 24.2448 1067.58 23.8438C1067.38 23.4375 1067.28 22.9688 1067.28 22.4375H1069.16C1069.16 22.776 1069.24 23.0755 1069.39 23.3359C1069.55 23.5911 1069.78 23.7917 1070.06 23.9375C1070.36 24.0833 1070.69 24.1562 1071.06 24.1562C1071.46 24.1562 1071.8 24.0859 1072.09 23.9453C1072.37 23.8047 1072.59 23.5964 1072.74 23.3203C1072.9 23.0443 1072.98 22.7109 1072.98 22.3203C1072.98 21.8776 1072.89 21.5182 1072.72 21.2422C1072.55 20.9661 1072.3 20.763 1071.99 20.6328C1071.67 20.4974 1071.29 20.4297 1070.86 20.4297H1069.74Z" fill="#CDCDCD"/>
<path d="M1029.93 77.2881H1027.34V75.9277H1029.93C1030.38 75.9277 1030.75 75.8548 1031.02 75.709C1031.3 75.5632 1031.5 75.3626 1031.63 75.1074C1031.76 74.8477 1031.83 74.5514 1031.83 74.2188C1031.83 73.9043 1031.76 73.6104 1031.63 73.3369C1031.5 73.0589 1031.3 72.8356 1031.02 72.667C1030.75 72.4984 1030.38 72.4141 1029.93 72.4141H1027.87V81H1026.15V71.0469H1029.93C1030.7 71.0469 1031.35 71.1836 1031.89 71.457C1032.43 71.7259 1032.85 72.0996 1033.13 72.5781C1033.41 73.0521 1033.55 73.5944 1033.55 74.2051C1033.55 74.8477 1033.41 75.3991 1033.13 75.8594C1032.85 76.3197 1032.43 76.6729 1031.89 76.9189C1031.35 77.165 1030.7 77.2881 1029.93 77.2881ZM1039.01 79.5166V75.9893C1039.01 75.7249 1038.97 75.4971 1038.87 75.3057C1038.78 75.1143 1038.63 74.9661 1038.43 74.8613C1038.24 74.7565 1038 74.7041 1037.71 74.7041C1037.44 74.7041 1037.21 74.7497 1037.01 74.8408C1036.82 74.932 1036.66 75.055 1036.55 75.21C1036.44 75.3649 1036.39 75.5404 1036.39 75.7363H1034.75C1034.75 75.4447 1034.82 75.1621 1034.96 74.8887C1035.1 74.6152 1035.31 74.3714 1035.58 74.1572C1035.85 73.943 1036.17 73.7744 1036.54 73.6514C1036.91 73.5283 1037.33 73.4668 1037.8 73.4668C1038.35 73.4668 1038.85 73.5602 1039.27 73.7471C1039.71 73.9339 1040.05 74.2165 1040.29 74.5947C1040.54 74.9684 1040.67 75.4378 1040.67 76.0029V79.291C1040.67 79.6283 1040.69 79.9313 1040.74 80.2002C1040.79 80.4645 1040.86 80.6947 1040.95 80.8906V81H1039.26C1039.18 80.8223 1039.12 80.5967 1039.08 80.3232C1039.04 80.0452 1039.01 79.7764 1039.01 79.5166ZM1039.25 76.502L1039.27 77.5205H1038.08C1037.78 77.5205 1037.51 77.5501 1037.28 77.6094C1037.05 77.6641 1036.85 77.7461 1036.7 77.8555C1036.54 77.9648 1036.43 78.097 1036.35 78.252C1036.27 78.4069 1036.23 78.5824 1036.23 78.7783C1036.23 78.9743 1036.28 79.1543 1036.37 79.3184C1036.46 79.4779 1036.59 79.6032 1036.77 79.6943C1036.94 79.7855 1037.16 79.8311 1037.41 79.8311C1037.75 79.8311 1038.04 79.7627 1038.29 79.626C1038.55 79.4847 1038.75 79.3138 1038.89 79.1133C1039.04 78.9082 1039.11 78.7145 1039.12 78.5322L1039.66 79.2637C1039.6 79.4505 1039.51 79.651 1039.38 79.8652C1039.24 80.0794 1039.07 80.2845 1038.86 80.4805C1038.65 80.6719 1038.39 80.8291 1038.1 80.9521C1037.81 81.0752 1037.47 81.1367 1037.09 81.1367C1036.6 81.1367 1036.17 81.041 1035.79 80.8496C1035.42 80.6536 1035.12 80.3916 1034.91 80.0635C1034.69 79.7308 1034.58 79.3548 1034.58 78.9355C1034.58 78.5436 1034.66 78.1973 1034.8 77.8965C1034.95 77.5911 1035.17 77.3359 1035.46 77.1309C1035.75 76.9258 1036.11 76.7708 1036.53 76.666C1036.95 76.5566 1037.42 76.502 1037.96 76.502H1039.25ZM1044.43 80.1934L1046.44 73.6035H1048.2L1045.24 82.1279C1045.17 82.3102 1045.08 82.5085 1044.97 82.7227C1044.86 82.9368 1044.72 83.1396 1044.54 83.3311C1044.36 83.527 1044.15 83.6842 1043.89 83.8027C1043.63 83.9258 1043.31 83.9873 1042.95 83.9873C1042.8 83.9873 1042.66 83.9736 1042.52 83.9463C1042.39 83.9235 1042.26 83.8984 1042.15 83.8711L1042.14 82.6133C1042.18 82.6178 1042.24 82.6224 1042.3 82.627C1042.37 82.6315 1042.43 82.6338 1042.47 82.6338C1042.74 82.6338 1042.97 82.5996 1043.15 82.5312C1043.33 82.4674 1043.48 82.3626 1043.59 82.2168C1043.71 82.071 1043.81 81.875 1043.9 81.6289L1044.43 80.1934ZM1043.29 73.6035L1045.05 79.1406L1045.34 80.877L1044.2 81.1709L1041.52 73.6035H1043.29ZM1050.79 75.1074V81H1049.15V73.6035H1050.7L1050.79 75.1074ZM1050.53 77.0283L1049.97 77.0215C1049.97 76.5111 1050.03 76.0394 1050.16 75.6064C1050.28 75.1735 1050.47 74.7975 1050.72 74.4785C1050.96 74.1549 1051.27 73.9066 1051.63 73.7334C1052 73.5557 1052.43 73.4668 1052.91 73.4668C1053.25 73.4668 1053.56 73.5169 1053.83 73.6172C1054.12 73.7129 1054.36 73.8656 1054.57 74.0752C1054.78 74.2848 1054.94 74.5537 1055.04 74.8818C1055.16 75.21 1055.22 75.6064 1055.22 76.0713V81H1053.57V76.2148C1053.57 75.8548 1053.51 75.5723 1053.4 75.3672C1053.3 75.1621 1053.15 75.0163 1052.95 74.9297C1052.75 74.8385 1052.52 74.793 1052.24 74.793C1051.93 74.793 1051.67 74.8522 1051.45 74.9707C1051.24 75.0892 1051.06 75.251 1050.92 75.4561C1050.79 75.6611 1050.69 75.8981 1050.62 76.167C1050.56 76.4359 1050.53 76.723 1050.53 77.0283ZM1055.11 76.5908L1054.34 76.7617C1054.34 76.3151 1054.4 75.8936 1054.53 75.4971C1054.65 75.096 1054.84 74.7451 1055.08 74.4443C1055.33 74.139 1055.63 73.8997 1055.99 73.7266C1056.35 73.5534 1056.76 73.4668 1057.23 73.4668C1057.6 73.4668 1057.94 73.5192 1058.24 73.624C1058.54 73.7243 1058.79 73.8838 1059 74.1025C1059.21 74.3213 1059.37 74.6061 1059.48 74.957C1059.59 75.3034 1059.65 75.7227 1059.65 76.2148V81H1057.99V76.208C1057.99 75.8343 1057.94 75.5449 1057.83 75.3398C1057.72 75.1348 1057.57 74.9935 1057.38 74.916C1057.18 74.834 1056.95 74.793 1056.67 74.793C1056.42 74.793 1056.19 74.8408 1056 74.9365C1055.8 75.0277 1055.64 75.1576 1055.51 75.3262C1055.38 75.4902 1055.28 75.6794 1055.21 75.8936C1055.15 76.1077 1055.11 76.3402 1055.11 76.5908ZM1064.6 81.1367C1064.05 81.1367 1063.56 81.0479 1063.12 80.8701C1062.68 80.6878 1062.31 80.4349 1062 80.1113C1061.69 79.7878 1061.46 79.4072 1061.29 78.9697C1061.13 78.5322 1061.05 78.0605 1061.05 77.5547V77.2812C1061.05 76.7025 1061.13 76.1784 1061.3 75.709C1061.47 75.2396 1061.7 74.8385 1062 74.5059C1062.3 74.1686 1062.66 73.9111 1063.07 73.7334C1063.48 73.5557 1063.92 73.4668 1064.4 73.4668C1064.93 73.4668 1065.39 73.5557 1065.79 73.7334C1066.19 73.9111 1066.52 74.1618 1066.78 74.4854C1067.04 74.8044 1067.24 75.1849 1067.36 75.627C1067.5 76.069 1067.56 76.5566 1067.56 77.0898V77.7939H1061.85V76.6113H1065.93V76.4814C1065.93 76.1852 1065.87 75.9072 1065.76 75.6475C1065.65 75.3877 1065.49 75.1781 1065.27 75.0186C1065.05 74.859 1064.76 74.7793 1064.4 74.7793C1064.12 74.7793 1063.88 74.8385 1063.67 74.957C1063.46 75.071 1063.28 75.2373 1063.14 75.4561C1063 75.6748 1062.89 75.9391 1062.81 76.249C1062.74 76.5544 1062.7 76.8984 1062.7 77.2812V77.5547C1062.7 77.8783 1062.74 78.179 1062.83 78.457C1062.92 78.7305 1063.05 78.9697 1063.23 79.1748C1063.4 79.3799 1063.61 79.5417 1063.86 79.6602C1064.1 79.7741 1064.38 79.8311 1064.7 79.8311C1065.09 79.8311 1065.45 79.7513 1065.76 79.5918C1066.07 79.4323 1066.34 79.2067 1066.56 78.915L1067.43 79.7559C1067.27 79.9883 1067.06 80.2116 1066.81 80.4258C1066.55 80.6354 1066.24 80.8063 1065.87 80.9385C1065.51 81.0706 1065.08 81.1367 1064.6 81.1367ZM1070.48 75.1826V81H1068.83V73.6035H1070.38L1070.48 75.1826ZM1070.19 77.0283L1069.65 77.0215C1069.66 76.4974 1069.73 76.0166 1069.87 75.5791C1070.02 75.1416 1070.22 74.7656 1070.47 74.4512C1070.73 74.1367 1071.04 73.8952 1071.4 73.7266C1071.76 73.5534 1072.16 73.4668 1072.61 73.4668C1072.96 73.4668 1073.28 73.5169 1073.57 73.6172C1073.86 73.7129 1074.11 73.8701 1074.32 74.0889C1074.53 74.3076 1074.68 74.5924 1074.79 74.9434C1074.9 75.2897 1074.96 75.7158 1074.96 76.2217V81H1073.3V76.2148C1073.3 75.8594 1073.25 75.5791 1073.15 75.374C1073.05 75.1644 1072.9 75.0163 1072.7 74.9297C1072.51 74.8385 1072.27 74.793 1071.98 74.793C1071.7 74.793 1071.45 74.8522 1071.23 74.9707C1071 75.0892 1070.81 75.251 1070.66 75.4561C1070.51 75.6611 1070.39 75.8981 1070.31 76.167C1070.23 76.4359 1070.19 76.723 1070.19 77.0283ZM1080.03 73.6035V74.8066H1075.86V73.6035H1080.03ZM1077.06 71.792H1078.71V78.9561C1078.71 79.1839 1078.74 79.3594 1078.81 79.4824C1078.88 79.6009 1078.97 79.6807 1079.09 79.7217C1079.21 79.7627 1079.34 79.7832 1079.5 79.7832C1079.62 79.7832 1079.73 79.7764 1079.83 79.7627C1079.94 79.749 1080.02 79.7354 1080.08 79.7217L1080.09 80.9795C1079.96 81.0205 1079.8 81.057 1079.61 81.0889C1079.44 81.1208 1079.23 81.1367 1079 81.1367C1078.62 81.1367 1078.28 81.0706 1077.99 80.9385C1077.7 80.8018 1077.47 80.5807 1077.31 80.2754C1077.15 79.9701 1077.06 79.5645 1077.06 79.0586V71.792ZM1086.55 73.6035V81H1084.9V73.6035H1086.55ZM1084.79 71.6621C1084.79 71.4115 1084.87 71.2041 1085.03 71.04C1085.2 70.8714 1085.44 70.7871 1085.73 70.7871C1086.02 70.7871 1086.25 70.8714 1086.42 71.04C1086.59 71.2041 1086.67 71.4115 1086.67 71.6621C1086.67 71.9082 1086.59 72.1133 1086.42 72.2773C1086.25 72.4414 1086.02 72.5234 1085.73 72.5234C1085.44 72.5234 1085.2 72.4414 1085.03 72.2773C1084.87 72.1133 1084.79 71.9082 1084.79 71.6621ZM1089.99 75.1826V81H1088.34V73.6035H1089.89L1089.99 75.1826ZM1089.7 77.0283L1089.16 77.0215C1089.17 76.4974 1089.24 76.0166 1089.38 75.5791C1089.53 75.1416 1089.73 74.7656 1089.98 74.4512C1090.24 74.1367 1090.55 73.8952 1090.91 73.7266C1091.27 73.5534 1091.67 73.4668 1092.12 73.4668C1092.47 73.4668 1092.79 73.5169 1093.08 73.6172C1093.37 73.7129 1093.62 73.8701 1093.83 74.0889C1094.03 74.3076 1094.19 74.5924 1094.3 74.9434C1094.41 75.2897 1094.47 75.7158 1094.47 76.2217V81H1092.81V76.2148C1092.81 75.8594 1092.76 75.5791 1092.66 75.374C1092.56 75.1644 1092.41 75.0163 1092.21 74.9297C1092.02 74.8385 1091.78 74.793 1091.49 74.793C1091.21 74.793 1090.96 74.8522 1090.74 74.9707C1090.51 75.0892 1090.32 75.251 1090.17 75.4561C1090.02 75.6611 1089.9 75.8981 1089.82 76.167C1089.74 76.4359 1089.7 76.723 1089.7 77.0283ZM1098.38 81H1096.73V72.8926C1096.73 72.3411 1096.83 71.8786 1097.04 71.5049C1097.25 71.1266 1097.55 70.8418 1097.93 70.6504C1098.32 70.4544 1098.78 70.3564 1099.31 70.3564C1099.47 70.3564 1099.63 70.3678 1099.79 70.3906C1099.95 70.4089 1100.11 70.4385 1100.26 70.4795L1100.22 71.751C1100.13 71.7282 1100.03 71.7122 1099.92 71.7031C1099.81 71.694 1099.7 71.6895 1099.57 71.6895C1099.32 71.6895 1099.11 71.7373 1098.92 71.833C1098.75 71.9242 1098.61 72.0586 1098.51 72.2363C1098.42 72.4141 1098.38 72.6328 1098.38 72.8926V81ZM1099.9 73.6035V74.8066H1095.6V73.6035H1099.9ZM1100.78 77.3838V77.2266C1100.78 76.6934 1100.86 76.1989 1101.02 75.7432C1101.17 75.2829 1101.39 74.8841 1101.69 74.5469C1101.98 74.2051 1102.34 73.9408 1102.77 73.7539C1103.19 73.5625 1103.68 73.4668 1104.22 73.4668C1104.76 73.4668 1105.24 73.5625 1105.67 73.7539C1106.09 73.9408 1106.46 74.2051 1106.75 74.5469C1107.05 74.8841 1107.27 75.2829 1107.43 75.7432C1107.58 76.1989 1107.66 76.6934 1107.66 77.2266V77.3838C1107.66 77.917 1107.58 78.4115 1107.43 78.8672C1107.27 79.3229 1107.05 79.7217 1106.75 80.0635C1106.46 80.4007 1106.1 80.665 1105.67 80.8564C1105.25 81.0433 1104.77 81.1367 1104.23 81.1367C1103.69 81.1367 1103.2 81.0433 1102.77 80.8564C1102.35 80.665 1101.99 80.4007 1101.69 80.0635C1101.4 79.7217 1101.17 79.3229 1101.02 78.8672C1100.86 78.4115 1100.78 77.917 1100.78 77.3838ZM1102.43 77.2266V77.3838C1102.43 77.7165 1102.47 78.0309 1102.53 78.3271C1102.6 78.6234 1102.71 78.8831 1102.86 79.1064C1103 79.3298 1103.19 79.5052 1103.42 79.6328C1103.64 79.7604 1103.92 79.8242 1104.23 79.8242C1104.53 79.8242 1104.8 79.7604 1105.02 79.6328C1105.25 79.5052 1105.44 79.3298 1105.58 79.1064C1105.73 78.8831 1105.84 78.6234 1105.9 78.3271C1105.98 78.0309 1106.01 77.7165 1106.01 77.3838V77.2266C1106.01 76.8984 1105.98 76.5885 1105.9 76.2969C1105.84 76.0007 1105.73 75.7386 1105.58 75.5107C1105.43 75.2829 1105.24 75.1051 1105.02 74.9775C1104.79 74.8454 1104.53 74.7793 1104.22 74.7793C1103.91 74.7793 1103.64 74.8454 1103.41 74.9775C1103.19 75.1051 1103 75.2829 1102.86 75.5107C1102.71 75.7386 1102.6 76.0007 1102.53 76.2969C1102.47 76.5885 1102.43 76.8984 1102.43 77.2266Z" fill="#CDCDCD"/>
</svg>
