<svg width="24" height="24" viewBox="0 0 24 24" fill="none" xmlns="http://www.w3.org/2000/svg">
<g clip-path="url(#clip0_177_3752)">
<mask id="mask0_177_3752" style="mask-type:luminance" maskUnits="userSpaceOnUse" x="0" y="0" width="24" height="24">
<path d="M23.2471 12.0008C23.2471 14.9849 22.0617 17.8467 19.9517 19.9568C17.8416 22.0668 14.9797 23.2523 11.9956 23.2523C9.01156 23.2523 6.1497 22.0668 4.03963 19.9568C1.92956 17.8467 0.744141 14.9849 0.744141 12.0008C0.744141 9.01668 1.92956 6.15482 4.03963 4.04476C6.1497 1.93469 9.01156 0.749268 11.9956 0.749268C14.9797 0.749268 17.8416 1.93469 19.9517 4.04476C22.0617 6.15482 23.2471 9.01668 23.2471 12.0008Z" fill="white"/>
</mask>
<g mask="url(#mask0_177_3752)">
<path d="M0.75 23.25L0.75 15.75L23.25 15.75V23.25H0.75Z" fill="#27AE60"/>
<path d="M0.75 15.75L0.75 8.25L23.25 8.25V15.75L0.75 15.75Z" fill="white"/>
<path d="M0.75 8.25L0.75 0.750001L23.25 0.750001V8.25L0.75 8.25Z" fill="#F39C12"/>
<path d="M11.9959 15.2831C13.8074 15.2831 15.276 13.8145 15.276 12.003C15.276 10.1914 13.8074 8.7229 11.9959 8.7229C10.1844 8.7229 8.71582 10.1914 8.71582 12.003C8.71582 13.8145 10.1844 15.2831 11.9959 15.2831Z" fill="#000088"/>
<path d="M11.996 14.8729C13.5811 14.8729 14.8661 13.588 14.8661 12.0029C14.8661 10.4178 13.5811 9.13281 11.996 9.13281C10.411 9.13281 9.12598 10.4178 9.12598 12.0029C9.12598 13.588 10.411 14.8729 11.996 14.8729Z" fill="white"/>
<path d="M11.9959 12.577C12.3129 12.577 12.5699 12.32 12.5699 12.003C12.5699 11.6859 12.3129 11.429 11.9959 11.429C11.6789 11.429 11.4219 11.6859 11.4219 12.003C11.4219 12.32 11.6789 12.577 11.9959 12.577Z" fill="#000088"/>
<path d="M14.8224 12.5199C14.901 12.5303 14.9731 12.475 14.9835 12.3964C14.9939 12.3179 14.9386 12.2457 14.86 12.2354C14.7815 12.225 14.7094 12.2802 14.699 12.3588C14.6886 12.4374 14.7439 12.5095 14.8224 12.5199Z" fill="#000088"/>
<path d="M11.9959 14.8731L12.0943 13.1511L11.9959 12.3311L11.8975 13.1511L11.9959 14.8731Z" fill="#000088"/>
<path d="M14.5928 13.2344C14.666 13.2648 14.75 13.2301 14.7804 13.1569C14.8108 13.0837 14.7761 12.9997 14.7029 12.9693C14.6297 12.9389 14.5457 12.9736 14.5153 13.0468C14.4849 13.12 14.5196 13.204 14.5928 13.2344Z" fill="#000088"/>
<path d="M11.2531 14.7756L11.7941 13.1375L11.9115 12.3199L11.604 13.0866L11.2531 14.7756Z" fill="#000088"/>
<path d="M14.1851 13.8641C14.2479 13.9124 14.338 13.9006 14.3863 13.8377C14.4346 13.7749 14.4227 13.6848 14.3599 13.6365C14.297 13.5882 14.207 13.6 14.1587 13.6629C14.1104 13.7257 14.1222 13.8158 14.1851 13.8641Z" fill="#000088"/>
<path d="M10.5603 14.4887L11.5065 13.0466L11.8313 12.2872L11.3361 12.9482L10.5603 14.4887Z" fill="#000088"/>
<path d="M13.629 14.3678C13.6772 14.4307 13.7673 14.4426 13.8302 14.3944C13.8931 14.3462 13.905 14.2562 13.8568 14.1933C13.8086 14.1303 13.7185 14.1184 13.6556 14.1666C13.5927 14.2148 13.5808 14.3049 13.629 14.3678Z" fill="#000088"/>
<path d="M9.96593 14.0323L11.2535 12.8843L11.7639 12.2349L11.1143 12.7451L9.96593 14.0323Z" fill="#000088"/>
<path d="M12.9615 14.7096C12.9918 14.7828 13.0757 14.8176 13.149 14.7873C13.2222 14.7571 13.257 14.6731 13.2267 14.5999C13.1964 14.5267 13.1125 14.4918 13.0393 14.5221C12.966 14.5524 12.9312 14.6363 12.9615 14.7096Z" fill="#000088"/>
<path d="M9.51086 13.438L11.0514 12.6622L11.7123 12.167L10.9529 12.4918L9.51086 13.438Z" fill="#000088"/>
<path d="M12.2272 14.8675C12.2375 14.9461 12.3096 15.0015 12.3881 14.9912C12.4667 14.9809 12.5221 14.9089 12.5118 14.8303C12.5015 14.7517 12.4295 14.6963 12.3509 14.7066C12.2723 14.7169 12.2169 14.789 12.2272 14.8675Z" fill="#000088"/>
<path d="M9.223 12.7456L10.9121 12.3952L11.6788 12.088L10.8611 12.2051L9.223 12.7456Z" fill="#000088"/>
<path d="M11.4789 14.8295C11.4685 14.9081 11.5238 14.9802 11.6024 14.9906C11.6809 15.001 11.753 14.9457 11.7634 14.8671C11.7738 14.7885 11.7185 14.7164 11.64 14.706C11.5614 14.6957 11.4893 14.7509 11.4789 14.8295Z" fill="#000088"/>
<path d="M9.12602 12.0029L10.848 12.1013L11.668 12.0029L10.848 11.9045L9.12602 12.0029Z" fill="#000088"/>
<path d="M10.7649 14.5994C10.7345 14.6726 10.7692 14.7566 10.8424 14.787C10.9156 14.8174 10.9996 14.7826 11.03 14.7094C11.0603 14.6362 11.0256 14.5523 10.9524 14.5219C10.8792 14.4915 10.7953 14.5262 10.7649 14.5994Z" fill="#000088"/>
<path d="M9.22407 11.2597L10.862 11.8007L11.6796 11.9181L10.913 11.6106L9.22407 11.2597Z" fill="#000088"/>
<path d="M10.1342 14.1926C10.0859 14.2555 10.0977 14.3456 10.1606 14.3939C10.2234 14.4422 10.3135 14.4303 10.3618 14.3675C10.4101 14.3046 10.3983 14.2145 10.3354 14.1662C10.2725 14.118 10.1824 14.1298 10.1342 14.1926Z" fill="#000088"/>
<path d="M9.50978 10.5679L10.9521 11.5141L11.7115 11.8389L11.0505 11.3437L9.50978 10.5679Z" fill="#000088"/>
<path d="M9.63044 13.6363C9.56753 13.6845 9.55561 13.7746 9.60382 13.8375C9.65203 13.9004 9.74212 13.9124 9.80503 13.8642C9.86794 13.8159 9.87986 13.7259 9.83165 13.6629C9.78344 13.6 9.69335 13.5881 9.63044 13.6363Z" fill="#000088"/>
<path d="M9.9657 9.97293L11.1139 11.2606L11.7634 11.771L11.2531 11.1214L9.9657 9.97293Z" fill="#000088"/>
<path d="M9.28892 12.9688C9.21568 12.9991 9.18087 13.0831 9.21116 13.1563C9.24146 13.2295 9.32539 13.2644 9.39863 13.2341C9.47188 13.2038 9.50669 13.1198 9.47639 13.0466C9.4461 12.9733 9.36216 12.9385 9.28892 12.9688Z" fill="#000088"/>
<path d="M10.5596 9.51729L11.3355 11.0579L11.8308 11.7189L11.5059 10.9595L10.5596 9.51729Z" fill="#000088"/>
<path d="M9.13097 12.2348C9.05238 12.2451 8.99702 12.3171 9.00731 12.3957C9.01761 12.4743 9.08966 12.5297 9.16825 12.5194C9.24684 12.5091 9.3022 12.437 9.29191 12.3584C9.28161 12.2798 9.20956 12.2245 9.13097 12.2348Z" fill="#000088"/>
<path d="M11.253 9.22988L11.6035 10.9191L11.9108 11.6859L11.7937 10.8681L11.253 9.22988Z" fill="#000088"/>
<path d="M9.16876 11.4864C9.09018 11.4761 9.01806 11.5313 9.00768 11.6099C8.9973 11.6885 9.05258 11.7606 9.13116 11.771C9.20974 11.7814 9.28185 11.7261 9.29224 11.6475C9.30262 11.5689 9.24733 11.4968 9.16876 11.4864Z" fill="#000088"/>
<path d="M11.9952 9.13281L11.8969 10.855L11.9953 11.6751L12.0937 10.855L11.9952 9.13281Z" fill="#000088"/>
<path d="M9.39835 10.7717C9.32514 10.7413 9.24117 10.776 9.21079 10.8492C9.18041 10.9224 9.21513 11.0064 9.28834 11.0368C9.36155 11.0672 9.44552 11.0324 9.4759 10.9592C9.50628 10.886 9.47156 10.8021 9.39835 10.7717Z" fill="#000088"/>
<path d="M12.738 9.23034L12.197 10.8685L12.0797 11.6862L12.3872 10.9195L12.738 9.23034Z" fill="#000088"/>
<path d="M9.80516 10.142C9.74231 10.0937 9.65221 10.1055 9.60393 10.1684C9.55565 10.2312 9.56747 10.3213 9.63033 10.3696C9.69318 10.4179 9.78328 10.4061 9.83156 10.3432C9.87984 10.2804 9.86802 10.1903 9.80516 10.142Z" fill="#000088"/>
<path d="M13.4299 9.5172L12.4837 10.9595L12.1589 11.7189L12.6541 11.0579L13.4299 9.5172Z" fill="#000088"/>
<path d="M10.3622 9.63826C10.314 9.57535 10.2239 9.56344 10.161 9.61165C10.0981 9.65986 10.0862 9.74994 10.1344 9.81285C10.1826 9.87576 10.2727 9.88768 10.3356 9.83947C10.3985 9.79126 10.4104 9.70117 10.3622 9.63826Z" fill="#000088"/>
<path d="M14.0253 9.97359L12.7377 11.1217L12.2273 11.7712L12.8769 11.2609L14.0253 9.97359Z" fill="#000088"/>
<path d="M11.0307 9.29626C11.0004 9.22301 10.9165 9.18819 10.8432 9.21848C10.77 9.24877 10.7352 9.3327 10.7655 9.40595C10.7958 9.4792 10.8797 9.51402 10.9529 9.48373C11.0262 9.45344 11.061 9.36951 11.0307 9.29626Z" fill="#000088"/>
<path d="M14.4817 10.5681L12.9409 11.3438L12.2799 11.8391L13.0393 11.5143L14.4817 10.5681Z" fill="#000088"/>
<path d="M11.765 9.13807C11.7547 9.05948 11.6827 9.00411 11.6041 9.01439C11.5255 9.02468 11.4701 9.09673 11.4804 9.17532C11.4907 9.25392 11.5627 9.30929 11.6413 9.299C11.7199 9.28871 11.7753 9.21666 11.765 9.13807Z" fill="#000088"/>
<path d="M14.7695 11.2606L13.0802 11.6109L12.3134 11.9181L13.1312 11.8011L14.7695 11.2606Z" fill="#000088"/>
<path d="M12.5133 9.17636C12.5237 9.09779 12.4684 9.02567 12.3899 9.01527C12.3113 9.00488 12.2392 9.06015 12.2288 9.13873C12.2184 9.21731 12.2737 9.28943 12.3522 9.29982C12.4308 9.31022 12.5029 9.25494 12.5133 9.17636Z" fill="#000088"/>
<path d="M14.8665 12.0033L13.1443 11.9048L12.3242 12.0032L13.1443 12.1016L14.8665 12.0033Z" fill="#000088"/>
<path d="M13.2273 9.40645C13.2577 9.33324 13.223 9.24927 13.1498 9.21888C13.0766 9.18849 12.9926 9.2232 12.9622 9.29641C12.9319 9.36961 12.9666 9.45359 13.0398 9.48397C13.113 9.51436 13.197 9.47965 13.2273 9.40645Z" fill="#000088"/>
<path d="M14.7684 12.7466L13.1303 12.2054L12.3126 12.088L13.0793 12.3956L14.7684 12.7466Z" fill="#000088"/>
<path d="M13.857 9.81325C13.9053 9.7504 13.8935 9.6603 13.8307 9.61201C13.7678 9.56373 13.6777 9.57554 13.6294 9.63839C13.5811 9.70124 13.5929 9.79134 13.6558 9.83963C13.7187 9.88791 13.8088 9.8761 13.857 9.81325Z" fill="#000088"/>
<path d="M14.4813 13.4379L13.0391 12.4916L12.2797 12.1667L12.9407 12.662L14.4813 13.4379Z" fill="#000088"/>
<path d="M14.3608 10.3696C14.4237 10.3214 14.4356 10.2313 14.3874 10.1684C14.3392 10.1054 14.2491 10.0935 14.1862 10.1417C14.1233 10.1899 14.1113 10.28 14.1595 10.3429C14.2078 10.4058 14.2978 10.4178 14.3608 10.3696Z" fill="#000088"/>
<path d="M14.0253 14.0328L12.8773 12.7451L12.2278 12.2346L12.738 12.8843L14.0253 14.0328Z" fill="#000088"/>
<path d="M14.7023 11.0373C14.7755 11.007 14.8103 10.9231 14.78 10.8498C14.7498 10.7766 14.6658 10.7418 14.5926 10.7721C14.5193 10.8024 14.4845 10.8863 14.5148 10.9595C14.5451 11.0328 14.629 11.0676 14.7023 11.0373Z" fill="#000088"/>
<path d="M13.4314 14.4886L12.6556 12.948L12.1604 12.287L12.4852 13.0464L13.4314 14.4886Z" fill="#000088"/>
<path d="M14.8602 11.7711C14.9388 11.7608 14.9942 11.6888 14.9839 11.6102C14.9736 11.5316 14.9015 11.4762 14.823 11.4865C14.7444 11.4968 14.689 11.5688 14.6993 11.6474C14.7096 11.726 14.7816 11.7814 14.8602 11.7711Z" fill="#000088"/>
<path d="M12.738 14.7758L12.3876 13.0866L12.0804 12.3198L12.1975 13.1375L12.738 14.7758Z" fill="#000088"/>
</g>
</g>
<defs>
<clipPath id="clip0_177_3752">
<rect width="24" height="24" fill="white"/>
</clipPath>
</defs>
</svg>
