<svg width="36" height="36" viewBox="0 0 36 36" fill="none" xmlns="http://www.w3.org/2000/svg">
<path d="M16.1263 31.0748C14.9006 30.1298 14.6379 30.0423 13.0269 30.2523C11.1182 30.4973 10.6629 30.3398 9.85741 28.415C9.26204 26.9626 9.0344 26.7526 7.58099 26.1401C5.74234 25.3702 5.47968 24.9327 5.74234 22.9729C5.95247 21.328 5.8474 21.083 4.91932 19.8756C3.69356 18.2833 3.69356 17.7233 4.91932 16.1309C5.88243 14.8885 5.93496 14.6261 5.74234 13.0337C5.47968 11.0739 5.74234 10.6189 7.58099 9.86645C9.0344 9.2715 9.24453 9.04402 9.85741 7.59163C10.6629 5.66679 11.1182 5.5093 13.0269 5.75428C14.6379 5.96426 14.9181 5.85927 16.1263 4.93185C17.7023 3.70694 18.2452 3.67195 19.8737 4.93185C21.0644 5.84177 21.3621 5.96426 22.9731 5.75428C24.8993 5.5093 25.3546 5.68429 26.1426 7.59163C26.7555 9.06152 26.9481 9.254 28.419 9.86645C30.2577 10.6189 30.5203 11.0739 30.2577 13.0337C30.0475 14.6611 30.1701 14.941 31.0807 16.1309C32.3064 17.7233 32.3064 18.2833 31.0807 19.8756C30.1701 21.0656 30.0475 21.3455 30.2577 22.9729C30.5203 24.9327 30.2577 25.3877 28.419 26.1401C26.9656 26.7351 26.7555 26.9626 26.1426 28.415C25.3546 30.3223 24.8993 30.5148 22.9731 30.2523C21.3621 30.0423 21.0819 30.1473 19.8737 31.0748C18.2802 32.2997 17.7373 32.3172 16.1263 31.0748Z" fill="#FED1D1"/>
<path d="M15.5771 31.883C14.5375 31.0899 14.467 31.0546 13.1101 31.2309C10.7842 31.5305 9.95597 31.1428 8.98681 28.8339C8.4758 27.6001 8.42293 27.5296 7.17183 27.0185C4.89871 26.0844 4.47581 25.256 4.77536 22.8943C4.95158 21.5371 4.91633 21.4666 4.12338 20.4268C2.64321 18.5056 2.60797 17.5363 4.12338 15.5799C4.91633 14.54 4.95158 14.4695 4.77536 13.1124C4.47581 10.7506 4.89871 9.93988 7.17183 8.98813C8.40531 8.47701 8.4758 8.42413 8.98681 7.17276C9.93835 4.86388 10.7842 4.47613 13.1101 4.77576C14.467 4.95201 14.5375 4.93438 15.5771 4.12363C17.4978 2.64313 18.467 2.60788 20.4229 4.12363C21.4625 4.91676 21.533 4.95201 22.8899 4.77576C25.2511 4.47613 26.0617 4.89913 27.0132 7.17276C27.5242 8.40651 27.5771 8.45938 28.8282 8.98813C31.0308 9.90463 31.5418 10.6801 31.2246 13.1124C31.0484 14.4871 31.0837 14.54 31.8766 15.5799C33.3568 17.501 33.392 18.4528 31.8766 20.4268C31.0837 21.4666 31.0484 21.5195 31.2246 22.8943C31.5242 25.2384 31.1189 26.0668 28.8282 27.0185C27.5771 27.5296 27.5418 27.5825 27.0132 28.8339C26.0617 31.1251 25.2158 31.5305 22.8899 31.2309C21.533 31.0546 21.4625 31.0723 20.4229 31.883C18.4846 33.3635 17.533 33.3811 15.5771 31.883ZM16.652 30.4906C17.9383 31.4776 18.0617 31.4776 19.3656 30.4906C20.7753 29.4155 21.2863 29.2569 23.1365 29.486C24.7048 29.6975 24.7929 29.6446 25.392 28.1641C26.0969 26.4898 26.4493 26.102 28.1586 25.397C29.6211 24.7801 29.6916 24.7096 29.4801 23.1234C29.2334 21.2728 29.392 20.7616 30.4845 19.3516C31.4713 18.065 31.4713 17.9416 30.4845 16.6374C29.4097 15.2274 29.2511 14.7163 29.4801 12.8656C29.6916 11.2794 29.6387 11.2089 28.1586 10.6096C26.4493 9.90463 26.0969 9.51688 25.392 7.84251C24.7753 6.36201 24.7048 6.32676 23.1189 6.52063C21.2511 6.76738 20.7401 6.59113 19.348 5.51601C18.0617 4.52901 17.9383 4.52901 16.6344 5.51601C15.2071 6.60876 14.7137 6.74976 12.8634 6.52063C11.2952 6.32676 11.2071 6.36201 10.5903 7.84251C9.9031 9.51688 9.51544 9.90463 7.82381 10.6096C6.34364 11.2265 6.3084 11.297 6.50223 12.8656C6.73131 14.7163 6.59034 15.2098 5.49783 16.6374C4.51105 17.924 4.51105 18.0474 5.49783 19.3516C6.57272 20.7616 6.73131 21.2728 6.50223 23.1234C6.29078 24.7096 6.34364 24.7801 7.82381 25.397C9.49782 26.0844 9.88548 26.4721 10.5903 28.1641C11.2071 29.6446 11.2775 29.6799 12.8458 29.486C14.6784 29.2569 15.1718 29.3803 16.6167 30.4906H16.652Z" fill="#FA1917"/>
<path d="M14.0914 23.859C13.6971 23.6019 13.5943 23.0707 13.8514 22.6765L20.7086 12.3942C20.9657 12 21.4971 11.8972 21.8914 12.1542C22.2857 12.4113 22.3886 12.9425 22.1314 13.3367L15.2743 23.6191C15.0171 24.0132 14.4857 24.1161 14.0914 23.859ZM17.1429 14.5706C17.1429 13.1482 15.9943 12 14.5714 12C13.1486 12 12 13.1482 12 14.5706C12 15.993 13.1486 17.1412 14.5714 17.1412C15.9943 17.1412 17.1429 15.993 17.1429 14.5706ZM15.4286 14.5706C15.4286 15.0504 15.0514 15.4275 14.5714 15.4275C14.0914 15.4275 13.7143 15.0504 13.7143 14.5706C13.7143 14.0907 14.0914 13.7137 14.5714 13.7137C15.0514 13.7137 15.4286 14.0907 15.4286 14.5706ZM24 21.4255C24 20.0031 22.8514 18.8549 21.4286 18.8549C20.0057 18.8549 18.8571 20.0031 18.8571 21.4255C18.8571 22.8479 20.0057 23.9961 21.4286 23.9961C22.8514 23.9961 24 22.8479 24 21.4255ZM22.2857 21.4255C22.2857 21.9053 21.9086 22.2824 21.4286 22.2824C20.9486 22.2824 20.5714 21.9053 20.5714 21.4255C20.5714 20.9457 20.9486 20.5686 21.4286 20.5686C21.9086 20.5686 22.2857 20.9457 22.2857 21.4255Z" fill="#FA1917"/>
</svg>
