<svg width="32" height="32" viewBox="0 0 32 32" fill="none" xmlns="http://www.w3.org/2000/svg">
<path d="M20.5303 19.4697C20.2374 19.1768 19.7626 19.1768 19.4697 19.4697C19.1768 19.7626 19.1768 20.2374 19.4697 20.5303L20.5303 19.4697ZM27.4697 28.5303C27.7626 28.8232 28.2374 28.8232 28.5303 28.5303C28.8232 28.2374 28.8232 27.7626 28.5303 27.4697L27.4697 28.5303ZM13.3333 21.9167C8.59289 21.9167 4.75 18.0738 4.75 13.3333H3.25C3.25 18.9022 7.76446 23.4167 13.3333 23.4167V21.9167ZM21.9167 13.3333C21.9167 18.0738 18.0738 21.9167 13.3333 21.9167V23.4167C18.9022 23.4167 23.4167 18.9022 23.4167 13.3333H21.9167ZM13.3333 4.75C18.0738 4.75 21.9167 8.59289 21.9167 13.3333H23.4167C23.4167 7.76446 18.9022 3.25 13.3333 3.25V4.75ZM13.3333 3.25C7.76446 3.25 3.25 7.76446 3.25 13.3333H4.75C4.75 8.59289 8.59289 4.75 13.3333 4.75V3.25ZM19.4697 20.5303L27.4697 28.5303L28.5303 27.4697L20.5303 19.4697L19.4697 20.5303Z" fill="black"/>
</svg>
