<svg width="32" height="32" viewBox="0 0 32 32" fill="none" xmlns="http://www.w3.org/2000/svg">
<path fill-rule="evenodd" clip-rule="evenodd" d="M12.75 8C12.75 6.20507 14.205 4.75 16 4.75C17.7949 4.75 19.25 6.20507 19.25 8V8.58333H12.75V8ZM11.25 10.0833V12C11.25 12.4142 11.5857 12.75 12 12.75C12.4142 12.75 12.75 12.4142 12.75 12V10.0833H19.25V12C19.25 12.4142 19.5857 12.75 20 12.75C20.4142 12.75 20.75 12.4142 20.75 12V10.0833H23.3054L24.5234 25.9167H7.47654L8.69448 10.0833H11.25ZM11.25 8.58333V8C11.25 5.37665 13.3766 3.25 16 3.25C18.6233 3.25 20.75 5.37665 20.75 8V8.58333H24C24.3919 8.58333 24.7177 8.88506 24.7478 9.27581L26.0811 26.6091C26.0971 26.8174 26.0255 27.023 25.8836 27.1763C25.7416 27.3295 25.5422 27.4167 25.3333 27.4167H6.66663C6.45772 27.4167 6.25828 27.3295 6.11634 27.1763C5.97439 27.023 5.90281 26.8174 5.91884 26.6091L7.25217 9.27581C7.28223 8.88506 7.60806 8.58333 7.99996 8.58333H11.25Z" fill="black"/>
</svg>
