<svg width="32" height="32" viewBox="0 0 32 32" fill="none" xmlns="http://www.w3.org/2000/svg">
<path fill-rule="evenodd" clip-rule="evenodd" d="M11.4166 9.33333C11.4166 6.80203 13.4687 4.75 16 4.75C18.5313 4.75 20.5833 6.80203 20.5833 9.33333C20.5833 11.8646 18.5313 13.9167 16 13.9167C13.4687 13.9167 11.4166 11.8646 11.4166 9.33333ZM16 3.25C12.6402 3.25 9.91663 5.9736 9.91663 9.33333C9.91663 12.6931 12.6402 15.4167 16 15.4167C19.3597 15.4167 22.0833 12.6931 22.0833 9.33333C22.0833 5.9736 19.3597 3.25 16 3.25ZM7.41663 24.4444C7.41663 22.386 9.03873 20.75 11 20.75H21C22.9612 20.75 24.5833 22.386 24.5833 24.4444V25.9167H7.41663V24.4444ZM11 19.25C8.17473 19.25 5.91663 21.5936 5.91663 24.4444V26.6667C5.91663 27.0809 6.25241 27.4167 6.66663 27.4167H25.3333C25.7475 27.4167 26.0833 27.0809 26.0833 26.6667V24.4444C26.0833 21.5936 23.8252 19.25 21 19.25H11Z" fill="black"/>
</svg>
